<?xml version="1.0" encoding="utf-8"?>
<!-- Generator: Adobe Illustrator 18.1.1, SVG Export Plug-In . SVG Version: 6.00 Build 0)  -->
<svg version="1.1" id="Layer_1" xmlns="http://www.w3.org/2000/svg" xmlns:xlink="http://www.w3.org/1999/xlink" x="0px" y="0px"
	 viewBox="-531 380 100 100" enable-background="new -531 380 100 100" xml:space="preserve">
<g id="Captions" display="none">
</g>
<path fill="#006837" d="M-448.7,380.4h-62.1c-3.3,0-6,2.7-6,6v11c0,3.3,2.7,6,6,6h6v32c0,2.2,1.8,4,4,4h33c2.2,0,4-1.8,4-4v-43h4v4v7v40h-36v1
	c0,2.2,1.8,4,4,4h33c2.2,0,4-1.8,4-4v-41h6c3.3,0,6-2.7,6-6v-11C-442.7,383.1-445.4,380.4-448.7,380.4z M-468.7,434.5h-31v-42h31
	L-468.7,434.5L-468.7,434.5z"/>
<path fill="#006837" d="M-485.3,419.3c-2.2,0-4.1-0.7-5.5-1.5l-1,3.9c1.3,0.7,3.4,1.3,5.7,1.4v3.2h3.3V423c3.8-0.7,5.9-3.2,5.9-6.2
	c0-3-1.6-4.8-5.6-6.2c-2.8-1.1-4-1.8-4-2.9c0-0.9,0.7-1.9,2.9-1.9c2.4,0,3.9,0.8,4.8,1.1l1-3.8c-1.1-0.5-2.6-1-4.8-1.1v-2.9h-3.3
	v3.2c-3.6,0.7-5.6,3-5.6,5.9c0,3.2,2.4,4.9,6,6.1c2.5,0.8,3.5,1.6,3.5,2.9C-482.1,418.6-483.4,419.3-485.3,419.3z"/>
</svg>
