<?xml version="1.0" encoding="utf-8"?>
<!-- Generator: Adobe Illustrator 18.1.1, SVG Export Plug-In . SVG Version: 6.00 Build 0)  -->
<svg version="1.1" id="Layer_1" xmlns="http://www.w3.org/2000/svg" xmlns:xlink="http://www.w3.org/1999/xlink" x="0px" y="0px"
	 viewBox="228 93 732 679" enable-background="new 228 93 732 679" xml:space="preserve">
<g id="Captions" display="none">
</g>
<path fill="#006837" d="M865.6,137.3H332.8c-28.3,0-51.5,23.2-51.5,51.5v94.4c0,28.3,23.2,51.5,51.5,51.5h51.5v274.6
	c0,18.9,15.4,34.3,34.3,34.3h283.1c18.9,0,34.3-15.4,34.3-34.3V240.2h34.3v34.3v60.1v343.2H461.5v8.6c0,18.9,15.4,34.3,34.3,34.3
	H779c18.9,0,34.3-15.4,34.3-34.3V334.6h51.5c28.3,0,51.5-23.2,51.5-51.5v-94.4C917.1,160.4,893.9,137.3,865.6,137.3z M694,601.5
	h-266V241.1h266V601.5L694,601.5z"/>
<path fill="#006837" d="M551.6,485.6c-18.9,0-35.2-6-47.2-12.9l-8.6,33.5c11.2,6,29.2,11.2,48.9,12v27.5h28.3v-28.3
	c32.6-6,50.6-27.5,50.6-53.2S610,423,575.6,411c-24-9.4-34.3-15.4-34.3-24.9c0-7.7,6-16.3,24.9-16.3c20.6,0,33.5,6.9,41.2,9.4
	l8.6-32.6c-9.4-4.3-22.3-8.6-41.2-9.4v-24.9h-28.3v27.5c-30.9,6-48,25.7-48,50.6c0,27.5,20.6,42,51.5,52.3c21.5,6.9,30,13.7,30,24.9
	C579.1,479.6,567.9,485.6,551.6,485.6z"/>
</svg>
