<?xml version="1.0" encoding="utf-8"?>
<!-- Generator: Adobe Illustrator 18.1.1, SVG Export Plug-In . SVG Version: 6.00 Build 0)  -->
<svg version="1.1" id="Слой_1" xmlns="http://www.w3.org/2000/svg" xmlns:xlink="http://www.w3.org/1999/xlink" x="0px" y="0px"
	 viewBox="256 80 651 658" enable-background="new 256 80 651 658" xml:space="preserve">
<path fill="#006837" d="M849.1,218.7c5.1,0,10.3-2.6,12.9-6.9c3.4-4.3,3.4-9.4,1.7-14.6c-16.3-45.5-60.1-76.4-109.8-73.8
	c-43.8,2.6-84.1,32.6-99.5,74.6c-6,18-8.6,36.9-4.3,54.9L429.5,474.4c-16.3-3.4-33.5-1.7-49.8,2.6c-48,13.7-81.5,57.5-81.5,106.4
	c0,30,11.2,57.5,32.6,78.9c20.6,20.6,48.9,32.6,78.9,32.6l0,0c48,0,91.8-33.5,106.4-81.5c5.1-16.3,6-33.5,2.6-49.8l220.5-220.5
	c54.9,10.3,106.4-21.5,124.4-72.1c1.7-5.1,0.9-10.3-1.7-14.6c-2.6-4.3-7.7-6.9-12.9-6.9h-79.8c-3.4-10.3-3.4-21.4,0-31.7
	L849.1,218.7L849.1,218.7z M486.1,605.6C475.8,640,444.9,664,409.8,664v16.3V664c-20.6,0-41.2-8.6-55.8-23.2
	c-14.6-14.6-23.2-35.2-23.2-55.8c0-35.2,24-66.1,58.3-76.4c6.9-1.7,13.7-3.4,20.6-3.4c3.4,0,6,0,10.3,0.9h0.9c3.4,0.9,6,0.9,9.4,1.7
	c27.5,7.7,48.9,28.3,55.8,55.8l0,0c0.9,3.4,0.9,6,1.7,8.6c0,0.9,0,1.7,0.9,2.6c0,0.9,0,1.7,0,2.6c0,1.7,0.9,4.3,0.9,6
	C489.6,591,487.8,597.9,486.1,605.6z M495.6,543c-9.4-18.9-25.7-35.2-44.6-44.6l222.2-222.2c9.4,19.7,25.7,35.2,45.5,45.5L495.6,543
	z M745.2,273.6c2.6,5.1,8.6,8.6,13.7,8.6h63.5c-15.4,19.7-38.6,32.6-65.2,31.7c-0.9,0-2.6,0-3.4,0c-5.1-0.9-10.3-0.9-16.3-2.6
	c-27.5-7.7-48.9-28.3-55.8-55.8l0,0c-0.9-5.1-1.7-9.4-2.6-13.7c0-1.7,0-3.4,0-6c0-8.6,0.9-17.2,4.3-25.7
	c11.2-30.9,39.5-52.3,70.4-54.1c27.5-0.9,52.3,11.2,67.8,31.7h-63.5c-6,0-11.2,3.4-13.7,8.6C733.2,220.4,733.2,249.6,745.2,273.6z"
	/>
<path fill="#006837" d="M409.8,544.7c-11.2,0-20.6,4.3-28.3,11.2c-7.7,7.7-11.2,17.2-11.2,28.3s4.3,20.6,11.2,28.3
	c7.7,7.7,17.2,11.2,28.3,11.2c11.2,0,20.6-4.3,28.3-11.2c7.7-7.7,11.2-17.2,11.2-28.3s-4.3-20.6-11.2-28.3
	C430.4,549,420.9,544.7,409.8,544.7z M426.9,601.3c-8.6,8.6-24.9,8.6-33.5,0c-4.3-4.3-6.9-10.3-6.9-17.2s2.6-12,6.9-17.2
	c4.3-4.3,10.3-6.9,17.2-6.9s12,2.6,17.2,6.9c4.3,4.3,6.9,10.3,6.9,17.2S431.2,596.2,426.9,601.3z"/>
<path fill="#006837" d="M658.6,324.2L499.9,482.9c-3.4,3.4-3.4,8.6,0,11.2c0.9,0.9,3.4,2.6,6,2.6c1.7,0,3.4-0.9,6-2.6l158.7-158.7
	c3.4-3.4,3.4-8.6,0-11.2C667.2,320.8,662,320.8,658.6,324.2z"/>
</svg>
