<?xml version="1.0" encoding="utf-8"?>
<!-- Generator: Adobe Illustrator 18.1.1, SVG Export Plug-In . SVG Version: 6.00 Build 0)  -->
<svg version="1.1" id="Слой_1" xmlns="http://www.w3.org/2000/svg" xmlns:xlink="http://www.w3.org/1999/xlink" x="0px" y="0px"
	 viewBox="-531 380 100 100" enable-background="new -531 380 100 100" xml:space="preserve">
<path fill="#006837" d="M-448.9,392.2c0.6,0,1.2-0.3,1.5-0.8c0.4-0.5,0.4-1.1,0.2-1.7c-1.9-5.3-7-8.9-12.8-8.6c-5.1,0.3-9.8,3.8-11.6,8.7
	c-0.7,2.1-1,4.3-0.5,6.4l-25.7,25.8c-1.9-0.4-3.9-0.2-5.8,0.3c-5.6,1.6-9.5,6.7-9.5,12.4c0,3.5,1.3,6.7,3.8,9.2
	c2.4,2.4,5.7,3.8,9.2,3.8l0,0c5.6,0,10.7-3.9,12.4-9.5c0.6-1.9,0.7-3.9,0.3-5.8l25.7-25.7c6.4,1.2,12.4-2.5,14.5-8.4
	c0.2-0.6,0.1-1.2-0.2-1.7s-0.9-0.8-1.5-0.8h-9.3c-0.4-1.2-0.4-2.5,0-3.7L-448.9,392.2L-448.9,392.2z M-491.2,437.3
	c-1.2,4-4.8,6.8-8.9,6.8v1.9v-1.9c-2.4,0-4.8-1-6.5-2.7s-2.7-4.1-2.7-6.5c0-4.1,2.8-7.7,6.8-8.9c0.8-0.2,1.6-0.4,2.4-0.4
	c0.4,0,0.7,0,1.2,0.1h0.1c0.4,0.1,0.7,0.1,1.1,0.2c3.2,0.9,5.7,3.3,6.5,6.5l0,0c0.1,0.4,0.1,0.7,0.2,1c0,0.1,0,0.2,0.1,0.3
	c0,0.1,0,0.2,0,0.3c0,0.2,0.1,0.5,0.1,0.7C-490.8,435.6-491,436.4-491.2,437.3z M-490.1,430c-1.1-2.2-3-4.1-5.2-5.2l25.9-25.9
	c1.1,2.3,3,4.1,5.3,5.3L-490.1,430z M-461,398.6c0.3,0.6,1,1,1.6,1h7.4c-1.8,2.3-4.5,3.8-7.6,3.7c-0.1,0-0.3,0-0.4,0
	c-0.6-0.1-1.2-0.1-1.9-0.3c-3.2-0.9-5.7-3.3-6.5-6.5l0,0c-0.1-0.6-0.2-1.1-0.3-1.6c0-0.2,0-0.4,0-0.7c0-1,0.1-2,0.5-3
	c1.3-3.6,4.6-6.1,8.2-6.3c3.2-0.1,6.1,1.3,7.9,3.7h-7.4c-0.7,0-1.3,0.4-1.6,1C-462.4,392.4-462.4,395.8-461,398.6z"/>
<path fill="#006837" d="M-500.1,430.2c-1.3,0-2.4,0.5-3.3,1.3c-0.9,0.9-1.3,2-1.3,3.3c0,1.3,0.5,2.4,1.3,3.3c0.9,0.9,2,1.3,3.3,1.3
	c1.3,0,2.4-0.5,3.3-1.3c0.9-0.9,1.3-2,1.3-3.3c0-1.3-0.5-2.4-1.3-3.3C-497.7,430.7-498.8,430.2-500.1,430.2z M-498.1,436.8
	c-1,1-2.9,1-3.9,0c-0.5-0.5-0.8-1.2-0.8-2s0.3-1.4,0.8-2c0.5-0.5,1.2-0.8,2-0.8s1.4,0.3,2,0.8c0.5,0.5,0.8,1.2,0.8,2
	S-497.6,436.2-498.1,436.8z"/>
<path fill="#006837" d="M-471.1,404.5l-18.5,18.5c-0.4,0.4-0.4,1,0,1.3c0.1,0.1,0.4,0.3,0.7,0.3c0.2,0,0.4-0.1,0.7-0.3l18.5-18.5
	c0.4-0.4,0.4-1,0-1.3C-470.1,404.1-470.7,404.1-471.1,404.5z"/>
</svg>
