<?xml version="1.0" encoding="utf-8"?>
<!-- Generator: Adobe Illustrator 18.1.1, SVG Export Plug-In . SVG Version: 6.00 Build 0)  -->
<svg version="1.1" id="Your_Icon" xmlns="http://www.w3.org/2000/svg" xmlns:xlink="http://www.w3.org/1999/xlink" x="0px" y="0px"
	 viewBox="283 104 601 645" enable-background="new 283 104 601 645" xml:space="preserve">
<path fill="#006837" d="M478.4,201.3h209.4c7.7,0,12.9-6,12.9-12.9s-6-12.9-12.9-12.9h-64.3c-5.1-18.9-21.5-33.5-40.3-33.5
	s-35.2,13.7-40.3,33.5h-64.4c-7.7,0-12.9,6-12.9,12.9S471.5,201.3,478.4,201.3z M716.9,550.5h-6.9L696.3,469
	c-0.9-6-6.9-11.2-12.9-11.2H482.7c-6.9,0-12,4.3-12.9,11.2l-13.7,81.5h-6.9c-7.7,0-12.9,6-12.9,12.9v88.4c0,7.7,6,12.9,12.9,12.9
	h2.6v33.5c0,7.7,6,12.9,12.9,12.9h30.9c7.7,0,12.9-6,12.9-12.9v-33.5H656v33.5c0,7.7,6,12.9,12.9,12.9h30.9c7.7,0,12.9-6,12.9-12.9
	v-33.5h2.6c7.7,0,12.9-6,12.9-12.9v-88.4C730.6,556.5,724.6,550.5,716.9,550.5z M480.1,629.4c-12,0-21.4-9.4-21.4-21.4
	c0-12,9.4-21.5,21.4-21.5c12,0,21.5,9.4,21.5,21.5C502.4,620,492.1,629.4,480.1,629.4z M482.7,550.5l11.2-66.1h178.5l11.2,66.1
	H482.7z M686,629.4c-12,0-21.4-9.4-21.4-21.4c0-12,9.4-21.5,21.4-21.5c12,0,21.5,9.4,21.5,21.5C707.5,620,698,629.4,686,629.4z
	 M570.2,233v151.9c0,7.7,6,12.9,12.9,12.9c7.7,0,12.9-6,12.9-12.9V233c0-7.7-6-12.9-12.9-12.9C575.3,220.2,570.2,226.2,570.2,233z
	 M468.1,221c-6.9-1.7-14.6,1.7-16.3,8.6L326.5,648.3c-1.7,6.9,1.7,14.6,8.6,16.3c0.9,0,2.6,0.9,3.4,0.9c6,0,11.2-3.4,12.9-9.4
	l125.3-418.7C479.3,230.4,475,222.7,468.1,221z M510.1,231.3l-26.6,151.9c-0.9,6.9,3.4,13.7,11.2,15.4c0.9,0,1.7,0,2.6,0
	c6,0,12-4.3,12.9-11.2l26.6-151.9c0.9-6.9-3.4-13.7-11.2-15.4C518.7,219.3,511.9,223.6,510.1,231.3z M840.5,648.3L715.2,229.6
	c-1.7-6.9-9.4-11.2-16.3-8.6c-6.9,1.7-11.2,9.4-8.6,16.3L815.6,656c1.7,6,6.9,9.4,12.9,9.4c0.9,0,2.6,0,3.4-0.9
	C838.8,662,842.2,655.2,840.5,648.3z M640.6,220.2c-6.9,0.9-12,7.7-11.2,15.4L656,387.5c0.9,6.9,6.9,11.2,12.9,11.2
	c0.9,0,1.7,0,2.6,0c6.9-0.9,12-7.7,11.2-15.4L656,231.3C654.3,223.6,647.4,219.3,640.6,220.2z"/>
</svg>
