<?xml version="1.0" encoding="utf-8"?>
<!-- Generator: Adobe Illustrator 18.1.1, SVG Export Plug-In . SVG Version: 6.00 Build 0)  -->
<svg version="1.1" id="Your_Icon" xmlns="http://www.w3.org/2000/svg" xmlns:xlink="http://www.w3.org/1999/xlink" x="0px" y="0px"
	 viewBox="-531 380 100 100" enable-background="new -531 380 100 100" xml:space="preserve">
<path fill="#006837" d="M-491.9,388.2h24.4c0.9,0,1.5-0.7,1.5-1.5s-0.7-1.5-1.5-1.5h-7.5c-0.6-2.2-2.5-3.9-4.7-3.9s-4.1,1.6-4.7,3.9h-7.5
	c-0.9,0-1.5,0.7-1.5,1.5S-492.7,388.2-491.9,388.2z M-464.1,428.9h-0.8l-1.6-9.5c-0.1-0.7-0.8-1.3-1.5-1.3h-23.4
	c-0.8,0-1.4,0.5-1.5,1.3l-1.6,9.5h-0.8c-0.9,0-1.5,0.7-1.5,1.5v10.3c0,0.9,0.7,1.5,1.5,1.5h0.3v3.9c0,0.9,0.7,1.5,1.5,1.5h3.6
	c0.9,0,1.5-0.7,1.5-1.5v-3.9h17.2v3.9c0,0.9,0.7,1.5,1.5,1.5h3.6c0.9,0,1.5-0.7,1.5-1.5v-3.9h0.3c0.9,0,1.5-0.7,1.5-1.5v-10.3
	C-462.5,429.6-463.2,428.9-464.1,428.9z M-491.7,438.1c-1.4,0-2.5-1.1-2.5-2.5s1.1-2.5,2.5-2.5s2.5,1.1,2.5,2.5
	C-489.1,437-490.3,438.1-491.7,438.1z M-491.4,428.9l1.3-7.7h20.8l1.3,7.7H-491.4z M-467.7,438.1c-1.4,0-2.5-1.1-2.5-2.5
	s1.1-2.5,2.5-2.5s2.5,1.1,2.5,2.5S-466.3,438.1-467.7,438.1z M-481.2,391.9v17.7c0,0.9,0.7,1.5,1.5,1.5c0.9,0,1.5-0.7,1.5-1.5v-17.7
	c0-0.9-0.7-1.5-1.5-1.5C-480.6,390.4-481.2,391.1-481.2,391.9z M-493.1,390.5c-0.8-0.2-1.7,0.2-1.9,1l-14.6,48.8
	c-0.2,0.8,0.2,1.7,1,1.9c0.1,0,0.3,0.1,0.4,0.1c0.7,0,1.3-0.4,1.5-1.1l14.6-48.8C-491.8,391.6-492.3,390.7-493.1,390.5z
	 M-488.2,391.7l-3.1,17.7c-0.1,0.8,0.4,1.6,1.3,1.8c0.1,0,0.2,0,0.3,0c0.7,0,1.4-0.5,1.5-1.3l3.1-17.7c0.1-0.8-0.4-1.6-1.3-1.8
	C-487.2,390.3-488,390.8-488.2,391.7z M-449.7,440.3l-14.6-48.8c-0.2-0.8-1.1-1.3-1.9-1c-0.8,0.2-1.3,1.1-1,1.9l14.6,48.8
	c0.2,0.7,0.8,1.1,1.5,1.1c0.1,0,0.3,0,0.4-0.1C-449.9,441.9-449.5,441.1-449.7,440.3z M-473,390.4c-0.8,0.1-1.4,0.9-1.3,1.8
	l3.1,17.7c0.1,0.8,0.8,1.3,1.5,1.3c0.1,0,0.2,0,0.3,0c0.8-0.1,1.4-0.9,1.3-1.8l-3.1-17.7C-471.4,390.8-472.2,390.3-473,390.4z"/>
</svg>
