<?xml version="1.0" encoding="utf-8"?>
<!-- Generator: Adobe Illustrator 18.1.1, SVG Export Plug-In . SVG Version: 6.00 Build 0)  -->
<svg version="1.1" id="Layer_1" xmlns="http://www.w3.org/2000/svg" xmlns:xlink="http://www.w3.org/1999/xlink" x="0px" y="0px"
	 viewBox="130 59 890 732" enable-background="new 130 59 890 732" xml:space="preserve">
<g>
	<path fill="#006837" d="M786.3,231c0-27.2-17.8-65-99.5-92.2c-53.4-17.8-123.6-27.2-197-27.2c-74.4,0-144.6,9.4-197,27.2
		c-82.8,27.2-99.5,65-99.5,92.2c0,116.3,4.2,208.5,24.1,280.8c18.9,71.2,52.4,124.7,111,181.2c36.7,34.6,93.2,53.4,162.4,53.4
		s125.7-18.9,162.4-53.4c45-43,75.4-85.9,98.5-141.4c0-1,1-2.1,7.3-4.2c9.4-3.1,23-3.1,31.4-3.1c5.2,0,11.5,0,16.8,0s11.5,0,16.8,0
		c39.8,0,76.5-16.8,104.8-47.1c26.2-28.3,40.9-66,40.9-103.7c0-39.8-15.7-75.4-43-100.6c-26.2-24.1-62.9-36.7-101.6-36.7
		c-14.7,0-26.2,2.1-36.7,4.2C786.3,250.9,786.3,241.5,786.3,231z M935.1,394.4c0,29.3-11.5,59.7-32.5,81.7
		c-22,23-50.3,36.7-80.7,36.7c-10.5,0-22-1-34.6-1c-29.3,0-58.7,3.1-68.1,27.2c-21,48.2-47.1,89-91.1,129.9
		c-30.4,28.3-77.5,45-140.4,45s-110-15.7-140.4-45C240.5,567.3,222.7,474,222.7,230c0-48.2,118.4-88,265-88s265,38.8,265,88
		c0,24.1,0,47.1-1,69.1c2.1,0,3.1,0,5.2,0c16.8,0,34.6-12.6,65-12.6c31.4,0,59.7,10.5,80.7,28.3C923.5,336.8,935.1,364,935.1,394.4z
		"/>
	<path fill="#006837" d="M750.7,373.5c-1,19.9-10.5,82.8-12.6,100.6c9.4-5.2,22-7.3,34.6-7.3c14.7,0,30.4,2.1,43,2.1
		c2.1,0,5.2,0,7.3,0c36.7-4.2,69.1-34.6,69.1-74.4c0-37.7-27.2-60.8-69.1-60.8C788.4,332.6,763.3,350.4,750.7,373.5z M815.6,436.3
		c-4.2,0-10.5,0-16.8-1c-7.3,0-14.7-1-23-1c2.1-17.8,5.2-37.7,6.3-50.3c6.3-8.4,17.8-18.9,40.9-18.9c16.8,0,36.7,5.2,36.7,29.3
		c0,24.1-19.9,39.8-39.8,41.9C818.8,436.3,817.7,436.3,815.6,436.3z"/>
	<path fill="#006837" d="M679.5,205.9c-4.2-2.1-8.4-1-10.5,3.1c-2.1,4.2-1,8.4,3.1,10.5c10.5,6.3,16.8,12.6,16.8,16.8
		s-5.2,10.5-17.8,17.8c-30.4-22-99.5-37.7-182.3-37.7S336.9,232,306.5,254c-12.6-6.3-17.8-12.6-17.8-17.8s6.3-11.5,16.8-16.8
		c4.2-2.1,5.2-7.3,3.1-10.5c-2.1-4.2-7.3-5.2-10.5-3.1c-16.8,9.4-25.1,19.9-25.1,31.4c0,40.9,107.9,62.9,215.8,62.9
		c106.9,0,215.8-22,215.8-62.9C704.6,225.8,696.2,215.3,679.5,205.9z"/>
</g>
</svg>
