<?xml version="1.0" encoding="utf-8"?>
<!-- Generator: Adobe Illustrator 18.1.1, SVG Export Plug-In . SVG Version: 6.00 Build 0)  -->
<svg version="1.1" id="Your_Icon" xmlns="http://www.w3.org/2000/svg" xmlns:xlink="http://www.w3.org/1999/xlink" x="0px" y="0px"
	 viewBox="229 6 706 847" enable-background="new 229 6 706 847" xml:space="preserve">
<g>
	<g>
		<path fill="#006837" d="M470.5,84c6.9,6.9,10.3,12.6,19.4,20.6c2.3,2.3,6.9,5.7,13.7,11.4c5.7,4.6,13.7,10.3,20.6,16
			c6.9,4.6,14.9,9.2,19.4,12.6c2.3,1.1,4.6,3.4,6.9,3.4c1.1,1.1,2.3,1.1,2.3,1.1s1.1,0,2.3,1.1c1.1,1.1,3.4,2.3,6.9,3.4
			c5.7,3.4,12.6,8,21.7,11.4c8,3.4,18.3,5.7,27.5,5.7c2.3,0,4.6,0,5.7,0c2.3,0,3.4,0,5.7,0c3.4,0,5.7-1.1,8-1.1
			c3.4-1.1,5.7-2.3,9.2-3.4c2.3-1.1,4.6-2.3,6.9-4.6c2.3-1.1,4.6-3.4,5.7-4.6c2.3-1.1,3.4-3.4,5.7-3.4c-2.3,0-4.6,0-6.9-1.1
			c-2.3-1.1-4.6-2.3-6.9-3.4c-2.3-1.1-4.6-2.3-6.9-3.4c-2.3-1.1-4.6-2.3-6.9-3.4c-1.1-1.1-3.4-1.1-5.7-2.3c-1.1,0-2.3-1.1-4.6-1.1
			c-1.1,0-3.4-1.1-4.6-2.3c-1.1-1.1-3.4-1.1-4.6-2.3c-2.3-1.1-3.4-1.1-5.7-2.3c-2.3,0-3.4-1.1-5.7-2.3c-2.3,0-3.4-1.1-5.7-1.1
			c-3.4-1.1-8-2.3-11.4-2.3c-3.4-1.1-6.9-1.1-10.3-2.3c-2.3-1.1-4.6-1.1-6.9-2.3c-1.1,0-2.3-1.1-2.3-1.1s-1.1,0-2.3-1.1
			c-1.1,0-3.4-1.1-6.9-2.3c-5.7-2.3-12.6-4.6-20.6-8c-8-3.4-16-6.9-22.9-10.3c-6.9-3.4-12.6-5.7-14.9-6.9c-5.7-2.3-9.2-4.6-13.7-5.7
			C478.5,88.6,473.9,86.3,470.5,84z"/>
	</g>
	<g>
		<path fill="#006837" d="M667.2,785.3c1.1-53.8-5.7-202.5-52.6-250.5c-9.2-9.2-19.4-13.7-30.9-13.7s-20.6,4.6-30.9,13.7
			c-46.9,48-53.8,196.8-52.6,250.5c0,0,0,9.2-6.9,16c-9.2,8-20.6,11.4-33.2,11.4l0,0c-18.3,0-33.2-9.2-35.5-10.3l-1.1-1.1l-1.1-1.1
			c-4.6-3.4-104.1-91.5-66.4-266.6v-1.1c0,0,11.4-43.5,13.7-85.8c0-3.4,0-62.9-36.6-98.4c-1.1-1.1-22.9-24-40-54.9
			c-22.9-44.6-25.2-86.9-4.6-121.3c6.9-14.9,57.2-125.8,147.6-125.8c24,0,49.2,8,74.4,24l1.1,1.1c0,0,21.7,16,46.9,16h46.9
			c26.3,0,46.9-16,46.9-16l1.1-1.1c24-16,49.2-24,74.4-24c90.4,0,140.7,111,147.6,125.8c20.6,34.3,18.3,76.6-4.6,121.3
			c-17.2,32-38.9,53.8-40,54.9c-36.6,36.6-36.6,95-36.6,98.4c1.1,42.3,12.6,85.8,13.7,85.8v1.1c37.8,175-61.8,263.1-66.4,266.6
			l-1.1,1.1l-1.1,1.1c-1.1,1.1-16,10.3-35.5,10.3c-12.6,0-24-4.6-33.2-11.4C666.1,795.6,667.2,785.3,667.2,785.3z M584.9,479.8
			c22.9,0,42.3,9.2,59.5,26.3c29.7,29.7,49.2,86.9,58.3,168.2c4.6,41.2,5.7,77.8,5.7,97.2c4.6,0,9.2-2.3,11.4-3.4
			c4.6-4.6,22.9-22.9,37.8-56.1c22.9-50.3,27.5-107.5,13.7-170.5c-1.1-5.7-12.6-49.2-14.9-95l0,0c0-3.4-1.1-78.9,48-128.1
			c1.1-1.1,70.9-73.2,37.8-127l-1.1-1.1l-1.1-1.1c0,0-11.4-27.5-32-53.8c-25.2-32-51.5-49.2-78.9-49.2c-16,0-33.2,5.7-51.5,17.2
			c-5.7,3.4-34.3,24-72.1,24h-46.9c-37.8,0-66.4-20.6-72.1-24C469.3,92,452.2,86.3,435,86.3c-27.5,0-53.8,16-78.9,49.2
			c-20.6,26.3-30.9,52.6-32,53.8l-1.1,1.1l-1.1,1.1c-13.7,21.7-11.4,49.2,5.7,82.4c13.7,26.3,32,45.8,33.2,45.8
			c49.2,49.2,48,125.8,48,128.1l0,0c-2.3,44.6-12.6,89.2-14.9,95C364.1,684.6,435,759,445.3,769.3c2.3,1.1,6.9,3.4,11.4,3.4
			c0-19.4,1.1-56.1,5.7-97.2c9.2-81.2,28.6-138.4,58.3-168.2C542.5,489,562,479.8,584.9,479.8z"/>
	</g>
</g>
</svg>
