<?xml version="1.0" encoding="utf-8"?>
<!-- Generator: Adobe Illustrator 18.1.1, SVG Export Plug-In . SVG Version: 6.00 Build 0)  -->
<svg version="1.1" id="Layer_1" xmlns="http://www.w3.org/2000/svg" xmlns:xlink="http://www.w3.org/1999/xlink" x="0px" y="0px"
	 viewBox="-531 380 100 100" enable-background="new -531 380 100 100" xml:space="preserve">
<g id="Layer_1_1_">
</g>
<g id="Layer_2">
	<path fill="#006837" d="M-452.5,382.4c-0.8-0.8-1.8-1.2-3-1.2h-7.1c-0.8,0-1.4,0.6-1.4,1.4v2.8c0,0.8,0.6,1.4,1.4,1.4h5.7v7.1v3.9
		c0,3.4-2.2,6.3-4,9.1c-2.8,4.3-9.1,4.3-11.9,0c-1.8-2.8-4-5.5-4-9.1v-3.9v-7.1h5.7c0.8,0,1.4-0.6,1.4-1.4v-2.8
		c0-0.8-0.6-1.4-1.4-1.4h-7.1c-1.2,0-2.2,0.5-3,1.2c-0.8,0.8-1.2,1.8-1.2,3v8.5v1c0,4.9,1.5,9.5,4,13.8c4.5,7.5,8.8,10.1,8.7,14.2
		c-0.1,2.6,0,5.3,0,7.9c0,6.3-5.1,11.4-11.4,11.4h-2.7c-6.3,0-11.4-5.1-11.4-11.4v-10.2c4.1-1.2,7.1-5,7.1-9.5
		c0-5.5-4.5-9.9-9.9-9.9c-5.5,0-9.9,4.5-9.9,9.9c0,4.5,3,8.3,7.1,9.5v10.2c0,9.4,7.6,17.1,17.1,17.1h2.7c9.4,0,17.1-7.6,17.1-17.1
		v-4.6c0-2.2-0.1-6.2,0.9-8.1c3.2-2.5,6.7-5.2,8.6-9c2.7-4.1,3.4-9.2,3.4-14.1v-1v-8.5C-451.3,384.2-451.8,383.1-452.5,382.4
		 M-503.5,411c0-2.9,2.4-5.3,5.3-5.3c2.9,0,5.3,2.4,5.3,5.3c0,2.9-2.4,5.3-5.3,5.3C-501.1,416.3-503.5,413.9-503.5,411"/>
</g>
</svg>
