<?xml version="1.0" encoding="utf-8"?>
<!-- Generator: Adobe Illustrator 18.1.1, SVG Export Plug-In . SVG Version: 6.00 Build 0)  -->
<svg version="1.1" id="Layer_1" xmlns="http://www.w3.org/2000/svg" xmlns:xlink="http://www.w3.org/1999/xlink" x="0px" y="0px"
	 viewBox="298 100 566 655" enable-background="new 298 100 566 655" xml:space="preserve">
<g id="Layer_1_1_">
</g>
<g id="Layer_2">
	<path fill="#006837" d="M812.7,153.2c-6.9-6.9-15.4-10.3-25.7-10.3h-60.9c-6.9,0-12,5.1-12,12v24c0,6.9,5.1,12,12,12H775v60.9v33.5
		c0,29.2-18.9,54.1-34.3,78.1c-24,36.9-78.1,36.9-102.1,0c-15.4-24-34.3-47.2-34.3-78.1v-33.5v-60.9h48.9c6.9,0,12-5.1,12-12v-24
		c0-6.9-5.1-12-12-12h-60.9c-10.3,0-18.9,4.3-25.7,10.3c-6.9,6.9-10.3,15.4-10.3,25.7v72.9v8.6c0,42,12.9,81.5,34.3,118.4
		c38.6,64.4,75.5,86.7,74.6,121.8c-0.9,22.3,0,45.5,0,67.8c0,54.1-43.8,97.8-97.8,97.8h-23.2c-54.1,0-97.8-43.8-97.8-97.8v-87.5
		c35.2-10.3,60.9-42.9,60.9-81.5c0-47.2-38.6-84.9-84.9-84.9c-47.2,0-84.9,38.6-84.9,84.9c0,38.6,25.7,71.2,60.9,81.5v87.5
		c0,80.7,65.2,146.7,146.7,146.7h23.2c80.7,0,146.7-65.2,146.7-146.7V529c0-18.9-0.9-53.2,7.7-69.5c27.5-21.5,57.5-44.6,73.8-77.2
		c23.2-35.2,29.2-78.9,29.2-121v-8.6v-72.9C823,168.6,818.7,159.2,812.7,153.2 M375.2,398.5c0-24.9,20.6-45.5,45.5-45.5
		s45.5,20.6,45.5,45.5S445.5,444,420.6,444S375.2,423.4,375.2,398.5"/>
</g>
</svg>
