<?xml version="1.0" encoding="utf-8"?>
<!-- Generator: Adobe Illustrator 18.1.1, SVG Export Plug-In . SVG Version: 6.00 Build 0)  -->
<svg version="1.1" id="Capa_1" xmlns="http://www.w3.org/2000/svg" xmlns:xlink="http://www.w3.org/1999/xlink" x="0px" y="0px"
	 viewBox="262 247 637 368" enable-background="new 262 247 637 368" xml:space="preserve">
<path fill="#006837" d="M829.9,489.5L598.2,414v-6c0-4.3,1.7-7.7,4.3-10.3l15.4-15.4c11.2-11.2,18-26.6,18-42
	c0-33.5-26.6-60.1-60.1-60.1c-33.5,0-60.1,26.6-60.1,60.1c0,8.6,6.9,15.4,15.4,15.4c8.6,0,15.4-6.9,15.4-15.4
	c0-16.3,12.9-29.2,29.2-29.2s29.2,12.9,29.2,29.2c0,7.7-3.4,15.4-8.6,20.6l-15.4,15.4c-8.6,8.6-12.9,19.7-12.9,31.7v5.1l-235.1,76.4
	c-18.9,6-31.7,23.2-31.7,42.9c0,24.9,20.6,45.5,45.5,45.5h469.3c24.9,0,45.5-20.6,45.5-45.5C861.6,512.7,848.8,495.5,829.9,489.5z
	 M816.2,546.1H346.8c-7.7,0-14.6-6-14.6-14.6c0-6,4.3-12,10.3-13.7l239.4-78.1l239.4,78.1c6,1.7,10.3,7.7,10.3,13.7
	C830.7,540.1,823.9,546.1,816.2,546.1z"/>
</svg>
