<?xml version="1.0" encoding="utf-8"?>
<!-- Generator: Adobe Illustrator 18.1.1, SVG Export Plug-In . SVG Version: 6.00 Build 0)  -->
<svg version="1.1" id="Capa_1" xmlns="http://www.w3.org/2000/svg" xmlns:xlink="http://www.w3.org/1999/xlink" x="0px" y="0px"
	 viewBox="-531 380 100 100" enable-background="new -531 380 100 100" xml:space="preserve">
<path fill="#006837" d="M-447.9,418.6l-27-8.8l0-0.7c0-0.5,0.2-0.9,0.5-1.2l1.8-1.8c1.3-1.3,2.1-3.1,2.1-4.9c0-3.9-3.1-7-7-7c-3.9,0-7,3.1-7,7
	c0,1,0.8,1.8,1.8,1.8c1,0,1.8-0.8,1.8-1.8c0-1.9,1.5-3.4,3.4-3.4c1.9,0,3.4,1.5,3.4,3.4c0,0.9-0.4,1.8-1,2.4l-1.8,1.8
	c-1,1-1.5,2.3-1.5,3.7l0,0.6l-27.4,8.9c-2.2,0.7-3.7,2.7-3.7,5c0,2.9,2.4,5.3,5.3,5.3h54.7c2.9,0,5.3-2.4,5.3-5.3
	C-444.2,421.3-445.7,419.3-447.9,418.6z M-449.5,425.2h-54.7c-0.9,0-1.7-0.7-1.7-1.7c0-0.7,0.5-1.4,1.2-1.6l27.9-9.1l27.9,9.1
	c0.7,0.2,1.2,0.9,1.2,1.6C-447.8,424.5-448.6,425.2-449.5,425.2z"/>
</svg>
