<?xml version="1.0" encoding="utf-8"?>
<!-- Generator: Adobe Illustrator 18.1.0, SVG Export Plug-In . SVG Version: 6.00 Build 0)  -->
<svg version="1.1" xmlns="http://www.w3.org/2000/svg" xmlns:xlink="http://www.w3.org/1999/xlink" x="0px" y="0px"
	 viewBox="-1229 671 100 100" enable-background="new -1229 671 100 100" xml:space="preserve">
<g id="Your_Icon">
</g>
<g id="Layer_1">
	<g id="Captions" display="none">
		<rect x="-1356.1" y="686.6" display="inline" width="137" height="73.3"/>
		<rect x="-1213.9" y="660" display="inline" width="74.1" height="22.2"/>
		<text transform="matrix(1 0 0 1 -1164.9736 672.1769)" display="inline" font-family="'Helvetica'" font-size="1.7778">http://thenounproject.com</text>
		<text transform="matrix(1 0 0 1 -1207.7247 672.029)" display="inline" font-family="'Helvetica-Bold'" font-size="2.963">Icon Template</text>
		<line display="inline" fill="none" stroke="#FFFFFF" stroke-miterlimit="10" x1="-1207.9" y1="675.9" x2="-1200.5" y2="675.9"/>
		<rect x="-1250.9" y="729.6" display="inline" fill="none" width="25.9" height="24.1"/>
		<text transform="matrix(1 0 0 1 -1250.8999 734.8864)" display="inline" font-family="'Helvetica'" font-size="1.7778">Save as .SVG and make sure </text>
		<rect x="-1250.5" y="703.3" display="inline" stroke="#FFFFFF" stroke-miterlimit="10" width="22.2" height="22.2"/>
	</g>
	<g id="Your_Icon_1_">
		<g>
			<path fill="#006837" stroke="#000000" stroke-width="1.9664" stroke-linecap="round" stroke-linejoin="round" stroke-miterlimit="3.8637" d="
				M-1174.4,723.1"/>
		</g>
		<path fill="#006837" d="M-1142.4,697.7h-68.6c-1.5,0-2.8,1.3-2.8,2.8v41.7c0,1.5,1.3,2.8,2.8,2.8h68.6c1.5,0,2.8-1.3,2.8-2.8v-41.7
			C-1139.6,699-1140.9,697.7-1142.4,697.7z M-1212.1,700.5c0-0.5,0.4-0.9,0.8-1h69.1c0.5,0.1,0.8,0.5,0.8,1v0.6l-3.1,0l-5.7,4.3
			l5.9-0.1l-5,3.7l-6,0.1l-5.7,4.3l5.9-0.1l-5.6,4.1l-6-0.1l-5.7,4.3l6.2-0.1l-4.9,3.6l-12.1,0.1l-4.8-3.6l6,0.1l-5.7-4.3l-6-0.1
			l-5.3-4l5.5,0.1l-5.7-4.3l-5.4-0.1l-4.9-3.7l5.2,0.1l-5.7-4.3l-2.3,0C-1212.1,701.1-1212.1,700.5-1212.1,700.5z M-1209.3,707.3
			l-2.9,2.9v-5.1L-1209.3,707.3z M-1212.2,742.2v-2.1l3.4-3.4v-6.2l-3.4,3.4v-5.7l3.4-3.4v-6.2l-3.4,3.4v-5.7l3.4-3.4v-5.2
			l26.3,20.1l0,0c0.1,0,1.9,1.2,5,1.3c0.1,0,0.3,0,0.4,0c3.2,0,4.5-1,4.6-1.1l31-22.8v5.1l-3.4,3.4v6.2l3.4-3.4v5.7l-3.4,3.4v6.2
			l3.4-3.4v5.7l-3.4,3.4v2.4h-2.4l-3.3,3.3h-5.7l3.3-3.3h-6.2l-3.3,3.3h-5.7l3.3-3.3h-6.2l-3.3,3.3h-5.7l3.3-3.3h-6.2l-3.3,3.3h-5.7
			l3.3-3.3h-6.2l-3.3,3.3h-5.7l3.3-3.3h-6.2l-3.3,3.3h-1.4C-1211.7,743.3-1212.2,742.8-1212.2,742.2z M-1142.4,743.3h-1.8l2.9-2.9
			v1.8C-1141.3,742.8-1141.8,743.3-1142.4,743.3z"/>
	</g>
</g>
<g id="Слой_1">
</g>
<g id="Capa_1">
</g>
</svg>
