<?xml version="1.0" encoding="utf-8"?>
<!-- Generator: Adobe Illustrator 18.1.1, SVG Export Plug-In . SVG Version: 6.00 Build 0)  -->
<svg version="1.1" id="Layer_1" xmlns="http://www.w3.org/2000/svg" xmlns:xlink="http://www.w3.org/1999/xlink" x="0px" y="0px"
	 viewBox="-533 382 96 96" enable-background="new -533 382 96 96" xml:space="preserve">
<path fill="#006837" d="M-458.6,450.6h-56.3c-0.8,0-1.5-0.7-1.5-1.5v-5.9c0-0.8,0.7-1.5,1.5-1.5h56.3c0.8,0,1.5,0.7,1.5,1.5v5.9
	C-457.1,450-457.8,450.6-458.6,450.6z M-513.4,447.7h53.3v-3h-53.3V447.7z"/>
<path fill="#006837" d="M-467.5,444.7H-506c-0.8,0-1.5-0.7-1.5-1.5V381c0-0.8,0.7-1.5,1.5-1.5h38.5c0.8,0,1.5,0.7,1.5,1.5v62.2
	C-466,444-466.6,444.7-467.5,444.7z M-504.5,441.7h35.6v-59.3h-35.6V441.7z"/>
<path fill="#006837" d="M-473.4,406.2h-26.7c-0.8,0-1.5-0.7-1.5-1.5v-17.8c0-0.8,0.7-1.5,1.5-1.5h26.7c0.8,0,1.5,0.7,1.5,1.5v17.8
	C-471.9,405.5-472.6,406.2-473.4,406.2z M-498.6,403.2h23.7v-14.8h-23.7V403.2z"/>
<path fill="#006837" d="M-456.9,438.8h-0.4c-3.2,0-5.7-2.6-5.7-5.7v-19.3c0-0.9-0.7-1.6-1.6-1.6h-1.4c-0.8,0-1.5-0.7-1.5-1.5s0.7-1.5,1.5-1.5h1.4
	c2.5,0,4.6,2,4.6,4.6V433c0,1.5,1.2,2.8,2.8,2.8h0.4c1.5,0,2.8-1.2,2.8-2.8v-29.4l-3.8-6.3h-5.1c-0.8,0-1.5-0.7-1.5-1.5
	c0-0.8,0.7-1.5,1.5-1.5h5.9c0.5,0,1,0.3,1.3,0.7l4.4,7.4c0.1,0.2,0.2,0.5,0.2,0.8V433C-451.2,436.2-453.7,438.8-456.9,438.8z"/>
<path fill="#006837" d="M-454.1,409.1c-3.4,0-5.9-2.6-5.9-5.7v-6.1c0-0.8,0.7-1.5,1.5-1.5s1.5,0.7,1.5,1.5v6.1c0,1.5,1.2,2.8,2.8,2.8
	c0.8,0,1.6,0.7,1.6,1.5S-453.3,409.1-454.1,409.1z"/>
</svg>
