<?xml version="1.0" encoding="utf-8"?>
<!-- Generator: Adobe Illustrator 18.1.1, SVG Export Plug-In . SVG Version: 6.00 Build 0)  -->
<svg version="1.1" id="Layer_1" xmlns="http://www.w3.org/2000/svg" xmlns:xlink="http://www.w3.org/1999/xlink" x="0px" y="0px"
	 viewBox="259 82 676 729" enable-background="new 259 82 676 729" xml:space="preserve">
<path fill="#006837" d="M821.6,759.1H318.4c-7.1,0-13.4-6.3-13.4-13.4V693c0-7.1,6.3-13.4,13.4-13.4h503.2c7.1,0,13.4,6.3,13.4,13.4
	v52.7C835,753.8,828.7,759.1,821.6,759.1z M331.8,733.2h476.4v-26.8H331.8V733.2z"/>
<path fill="#006837" d="M742.1,706.4H398c-7.1,0-13.4-6.3-13.4-13.4V137.1c0-7.1,6.3-13.4,13.4-13.4h344.1c7.1,0,13.4,6.3,13.4,13.4
	V693C755.5,700.1,750.1,706.4,742.1,706.4z M411.4,679.6h318.2v-530H411.4V679.6z"/>
<path fill="#006837" d="M689.3,362.3H450.7c-7.1,0-13.4-6.3-13.4-13.4V189.8c0-7.1,6.3-13.4,13.4-13.4h238.6
	c7.1,0,13.4,6.3,13.4,13.4v159.1C702.7,356,696.5,362.3,689.3,362.3z M464.1,335.5h211.8V203.2H464.1V335.5z"/>
<path fill="#006837" d="M836.8,653.6h-3.6c-28.6,0-50.9-23.2-50.9-50.9V430.2c0-8-6.3-14.3-14.3-14.3h-12.5
	c-7.1,0-13.4-6.3-13.4-13.4c0-7.1,6.3-13.4,13.4-13.4H768c22.3,0,41.1,17.9,41.1,41.1v171.6c0,13.4,10.7,25,25,25h3.6
	c13.4,0,25-10.7,25-25V339.1l-34-56.3h-45.6c-7.1,0-13.4-6.3-13.4-13.4c0-7.1,6.3-13.4,13.4-13.4h52.7c4.5,0,8.9,2.7,11.6,6.3
	l39.3,66.1c0.9,1.8,1.8,4.5,1.8,7.1v266.3C887.7,630.4,865.4,653.6,836.8,653.6z"/>
<path fill="#006837" d="M861.8,388.2c-30.4,0-52.7-23.2-52.7-50.9v-54.5c0-7.1,6.3-13.4,13.4-13.4s13.4,6.3,13.4,13.4v54.5
	c0,13.4,10.7,25,25,25c7.1,0,14.3,6.3,14.3,13.4C875.2,382.8,869,388.2,861.8,388.2z"/>
</svg>
