<?xml version="1.0" encoding="utf-8"?>
<!-- Generator: Adobe Illustrator 18.1.1, SVG Export Plug-In . SVG Version: 6.00 Build 0)  -->
<svg version="1.1" id="Слой_1" xmlns="http://www.w3.org/2000/svg" xmlns:xlink="http://www.w3.org/1999/xlink" x="0px" y="0px"
	 viewBox="-531 380 100 100" enable-background="new -531 380 100 100" xml:space="preserve">
<path fill="#006837" d="M-450.1,425.6L-450.1,425.6C-450.1,425.6-450.1,425.6-450.1,425.6c0.1,0,0.2,0,0.4,0c0,0,0.1,0,0.1,0c0.1,0,0.1,0,0.2-0.1
	c0,0,0.1,0,0.1-0.1c0.1,0,0.1-0.1,0.2-0.1c0,0,0.1-0.1,0.1-0.1c0,0,0.1-0.1,0.1-0.1c0,0,0.1-0.1,0.1-0.1c0,0,0.1-0.1,0.1-0.1
	c0,0,0.1-0.1,0.1-0.1c0-0.1,0.1-0.1,0.1-0.2c0,0,0-0.1,0.1-0.2c0-0.1,0-0.1,0.1-0.2c0-0.1,0-0.1,0-0.2c0,0,0-0.1,0-0.1l1.9-22.2
	c0-0.1,0-0.1,0-0.2c0-0.1,0-0.1,0-0.2c0-0.1,0-0.1,0-0.2c0-0.1,0-0.1,0-0.2c0-0.1,0-0.1-0.1-0.2c0-0.1,0-0.1-0.1-0.2
	c0-0.1-0.1-0.1-0.1-0.2c0,0-0.1-0.1-0.1-0.1c0,0-0.1-0.1-0.1-0.1c0,0-0.1-0.1-0.1-0.1c0,0-0.1-0.1-0.1-0.1c0,0-0.1-0.1-0.2-0.1
	c-0.1,0-0.1,0-0.2-0.1c-0.1,0-0.1-0.1-0.2-0.1c-0.1,0-0.1,0-0.2,0c-0.1,0-0.1,0-0.2,0l-52.8-6.4l-0.2-2.3c0,0,0,0,0,0
	c0-0.1,0-0.2,0-0.2c0,0,0-0.1,0-0.1c0-0.1-0.1-0.2-0.1-0.3c0,0,0,0,0-0.1c-0.2-0.4-0.5-0.7-0.9-0.8c-0.1,0-0.1-0.1-0.2-0.1
	c0,0,0,0,0,0l-8.4-2.6c-1-0.3-2,0.2-2.3,1.2c-0.3,1,0.2,2,1.2,2.3l7.2,2.2l2.6,31.3c0,0,0,0.1,0,0.1c0,0.1,0,0.1,0,0.2
	c0,0.1,0,0.1,0.1,0.2c0,0.1,0,0.1,0.1,0.2c0,0.1,0.1,0.1,0.1,0.2c0,0,0.1,0.1,0.1,0.1c0,0.1,0.1,0.1,0.1,0.1c0,0,0.1,0.1,0.1,0.1
	c0,0,0.1,0.1,0.1,0.1c0,0,0.1,0.1,0.1,0.1c0.1,0,0.1,0.1,0.2,0.1c0,0,0.1,0,0.1,0.1c0.1,0,0.1,0,0.2,0.1c0,0,0.1,0,0.1,0
	c0,0,0,0,0,0c0.1,0,0.2,0,0.4,0c0,0,0,0,0,0c0,0,0,0,0,0h1l-2.7,6.7v0l0,0c0,0,0,0.1,0,0.1c0,0.1,0,0.1-0.1,0.2c0,0.1,0,0.1,0,0.2
	c0,0,0,0.1,0,0.1c0,0,0,0,0,0c0,0.1,0,0.2,0,0.2c0,0,0,0,0,0.1c-2.2,0.8-3.7,2.8-3.7,5.2c0,3.1,2.5,5.6,5.6,5.6
	c3.1,0,5.6-2.5,5.6-5.6c0-1.4-0.5-2.7-1.4-3.7h3.3c0,0,0,0,0,0c0,0,0,0,0,0h34.8c-0.9,1-1.4,2.3-1.4,3.7c0,3.1,2.5,5.6,5.6,5.6
	c3.1,0,5.6-2.5,5.6-5.6c0-2.8-2.1-5.1-4.7-5.5l-1.4-1.4c-0.3-0.3-0.8-0.5-1.3-0.5h-34.3l2.2-5.6H-450.1z M-496.4,421.9h-2l-0.4-4.4
	h2.7l0.3,4.4H-496.4C-496.4,421.9-496.4,421.9-496.4,421.9z M-488.2,417.4h3.4l0.2,4.4h-3.4L-488.2,417.4z M-451.2,415.2h-2.8
	l0.4-6.2l2.9,0.4L-451.2,415.2z M-456.3,415.2h-3.5l0.2-6.9l3.7,0.4L-456.3,415.2z M-462,415.2h-3.5l0.1-7.7l3.7,0.4L-462,415.2z
	 M-467.7,415.2h-3.5l-0.1-8.4l3.7,0.4L-467.7,415.2z M-473.5,415.2h-3.5l-0.2-9.1l3.6,0.4L-473.5,415.2z M-479.2,415.2h-3.5
	l-0.4-9.8l3.6,0.4L-479.2,415.2z M-484.9,415.2h-3.5l-0.6-10.5l3.6,0.4L-484.9,415.2z M-482.6,417.4h3.4l0.1,4.4h-3.4L-482.6,417.4z
	 M-476.9,417.4h3.4l0,4.4h-3.4L-476.9,417.4z M-471.2,417.4h3.5l-0.1,4.4h-3.4L-471.2,417.4z M-465.5,417.4h3.5l-0.2,4.4h-3.4
	L-465.5,417.4z M-459.9,417.4h3.5l-0.3,4.4h-3.4L-459.9,417.4z M-454.2,417.4h2.7l-0.4,4.4h-2.6L-454.2,417.4z M-450.5,407.1l-3-0.4
	l0.2-4l3.1,0.4L-450.5,407.1z M-455.8,406.5l-3.7-0.5l0.1-4l3.8,0.5L-455.8,406.5z M-461.7,405.7l-3.7-0.4l0.1-4l3.8,0.5
	L-461.7,405.7z M-467.6,405l-3.7-0.4l0-4l3.8,0.5L-467.6,405z M-473.5,404.3l-3.7-0.4l-0.1-4l3.8,0.5L-473.5,404.3z M-479.5,403.6
	l-3.7-0.4l-0.2-4l3.7,0.5L-479.5,403.6z M-485.4,402.9l-3.7-0.4l-0.2-4.1l3.7,0.5L-485.4,402.9z M-491.3,402.2l-3.7-0.4l-0.3-4.1
	l3.7,0.5L-491.3,402.2z M-491.2,404.4l0.6,10.8h-3.4l-0.8-11.2L-491.2,404.4z M-496.2,415.2h-2.7l-1-11.8l2.9,0.3L-496.2,415.2z
	 M-493.5,421.9l-0.3-4.4h3.4l0.2,4.4H-493.5z M-497.5,397.4l0.3,4.1l-2.9-0.4l-0.3-4.1L-497.5,397.4z M-500.1,440.4
	c-1,0-1.9-0.8-1.9-1.9s0.8-1.9,1.9-1.9c1,0,1.9,0.8,1.9,1.9S-499.1,440.4-500.1,440.4z M-453.8,440.4c-1,0-1.9-0.8-1.9-1.9
	s0.8-1.9,1.9-1.9s1.9,0.8,1.9,1.9S-452.8,440.4-453.8,440.4z M-493.9,431.1h-3.4l2.2-5.6h3.4L-493.9,431.1z"/>
</svg>
