<?xml version="1.0" encoding="utf-8"?>
<!-- Generator: Adobe Illustrator 18.1.1, SVG Export Plug-In . SVG Version: 6.00 Build 0)  -->
<svg version="1.1" id="Слой_1" xmlns="http://www.w3.org/2000/svg" xmlns:xlink="http://www.w3.org/1999/xlink" x="0px" y="0px"
	 viewBox="255 141 666 575" enable-background="new 255 141 666 575" xml:space="preserve">
<path fill="#006837" d="M835.8,518.2L835.8,518.2L835.8,518.2c0.9,0,1.7,0,3.4,0h0.9c0.9,0,0.9,0,1.7-0.9c0,0,0.9,0,0.9-0.9
	c0.9,0,0.9-0.9,1.7-0.9l0.9-0.9l0.9-0.9l0.9-0.9l0.9-0.9l0.9-0.9c0-0.9,0.9-0.9,0.9-1.7c0,0,0-0.9,0.9-1.7c0-0.9,0-0.9,0.9-1.7
	c0-0.9,0-0.9,0-1.7v-0.9l16.3-190.5c0-0.9,0-0.9,0-1.7c0-0.9,0-0.9,0-1.7s0-0.9,0-1.7c0-0.9,0-0.9,0-1.7c0-0.9,0-0.9-0.9-1.7
	c0-0.9,0-0.9-0.9-1.7c0-0.9-0.9-0.9-0.9-1.7l-0.9-0.9l-0.9-0.9l-0.9-0.9l-0.9-0.9c0,0-0.9-0.9-1.7-0.9s-0.9,0-1.7-0.9
	c-0.9,0-0.9-0.9-1.7-0.9c-0.9,0-0.9,0-1.7,0s-0.9,0-1.7,0l-453-54.9l-1.7-19.7l0,0c0-0.9,0-1.7,0-1.7v-0.9c0-0.9-0.9-1.7-0.9-2.6
	c0,0,0,0,0-0.9c-1.7-3.4-4.3-6-7.7-6.9c-0.9,0-0.9-0.9-1.7-0.9l0,0l-72.1-22.3c-8.6-2.6-17.2,1.7-19.7,10.3
	c-2.6,8.6,1.7,17.2,10.3,19.7l61.8,18.9l22.3,268.6v0.9c0,0.9,0,0.9,0,1.7s0,0.9,0.9,1.7c0,0.9,0,0.9,0.9,1.7c0,0.9,0.9,0.9,0.9,1.7
	l0.9,0.9c0,0.9,0.9,0.9,0.9,0.9l0.9,0.9l0.9,0.9l0.9,0.9c0.9,0,0.9,0.9,1.7,0.9c0,0,0.9,0,0.9,0.9c0.9,0,0.9,0,1.7,0.9h0.9l0,0
	c0.9,0,1.7,0,3.4,0l0,0l0,0h8.6l-23.2,57.5l0,0l0,0v0.9c0,0.9,0,0.9-0.9,1.7c0,0.9,0,0.9,0,1.7v0.9l0,0c0,0.9,0,1.7,0,1.7s0,0,0,0.9
	c-18.9,6.9-31.7,24-31.7,44.6c0,26.6,21.4,48,48,48s48-21.4,48-48c0-12-4.3-23.2-12-31.7h28.3l0,0l0,0h298.6
	c-7.7,8.6-12,19.7-12,31.7c0,26.6,21.5,48,48,48c26.6,0,48-21.4,48-48c0-24-18-43.8-40.3-47.2l-12-12c-2.6-2.6-6.9-4.3-11.2-4.3
	H496.1l18.9-48h320.9V518.2z M438.6,486.4h-17.2l-3.4-37.8h23.2l2.6,37.8H438.6L438.6,486.4z M508.9,447.8h29.2l1.7,37.8h-29.2
	L508.9,447.8z M826.4,428.9h-24l3.4-53.2l24.9,3.4L826.4,428.9z M782.6,428.9h-30l1.7-59.2l31.7,3.4L782.6,428.9z M733.7,428.9h-30
	l0.9-66.1l31.7,3.4L733.7,428.9z M684.8,428.9h-30l-0.9-72.1l31.7,3.4L684.8,428.9z M635.1,428.9h-30l-1.7-78.1l30.9,3.4
	L635.1,428.9z M586.2,428.9h-30l-3.4-84.1l30.9,3.4L586.2,428.9z M537.3,428.9h-30l-5.1-90.1l30.9,3.4L537.3,428.9z M557,447.8h29.2
	l0.9,37.8h-29.2L557,447.8z M605.9,447.8h29.2v37.8h-29.2V447.8z M654.8,447.8h30l-0.9,37.8h-29.2V447.8z M703.7,447.8h30l-1.7,37.8
	h-29.2L703.7,447.8z M751.8,447.8h30l-2.6,37.8H750L751.8,447.8z M800.7,447.8h23.2l-3.4,37.8h-22.3L800.7,447.8z M832.4,359.4
	l-25.7-3.4l1.7-34.3l26.6,3.4L832.4,359.4z M786.9,354.3l-31.7-4.3l0.9-34.3l32.6,4.3L786.9,354.3z M736.3,347.4l-31.7-3.4l0.9-34.3
	L738,314L736.3,347.4z M685.7,341.4l-31.7-3.4v-34.3l32.6,4.3L685.7,341.4z M635.1,335.4l-31.7-3.4l-0.9-34.3l32.6,4.3L635.1,335.4z
	 M583.6,329.4l-31.7-3.4l-1.7-34.3l31.7,4.3L583.6,329.4z M533,323.4l-31.7-3.4l-1.7-35.2l31.7,4.3L533,323.4z M482.3,317.4
	l-31.7-3.4l-2.6-35.2l31.7,4.3L482.3,317.4z M483.2,336.3l5.1,92.7h-29.2l-6.9-96.1L483.2,336.3z M440.3,428.9h-23.2l-8.6-101.2
	l24.9,2.6L440.3,428.9z M463.5,486.4l-2.6-37.8h29.2l1.7,37.8H463.5z M429.1,276.2l2.6,35.2l-24.9-3.4l-2.6-35.2L429.1,276.2z
	 M406.8,645.2c-8.6,0-16.3-6.9-16.3-16.3c0-9.4,6.9-16.3,16.3-16.3c8.6,0,16.3,6.9,16.3,16.3C423.1,638.3,415.4,645.2,406.8,645.2z
	 M804.1,645.2c-8.6,0-16.3-6.9-16.3-16.3c0-9.4,6.9-16.3,16.3-16.3c9.4,0,16.3,6.9,16.3,16.3C820.4,638.3,812.7,645.2,804.1,645.2z
	 M460,565.4h-29.2l18.9-48h29.2L460,565.4z"/>
</svg>
