<?xml version="1.0" encoding="utf-8"?>
<!-- Generator: Adobe Illustrator 18.1.1, SVG Export Plug-In . SVG Version: 6.00 Build 0)  -->
<svg version="1.1" id="Layer_1" xmlns="http://www.w3.org/2000/svg" xmlns:xlink="http://www.w3.org/1999/xlink" x="0px" y="0px"
	 viewBox="222 70 721 714" enable-background="new 222 70 721 714" xml:space="preserve">
<g>
	<path fill="#006837" d="M-906.1,229.8c-263.8,0-476.2,214.5-476.2,476.2s214.5,476.2,476.2,476.2S-430,967.7-430,706
		S-642.3,229.8-906.1,229.8z M-906.1,1137.2c-238.1,0-433.3-193-433.3-433.3s193.1-433.3,433.3-433.3s433.3,193.1,433.3,433.3
		S-668,1137.2-906.1,1137.2z"/>
	<path fill="#006837" d="M-906.1,324.2c-210.2,0-381.8,171.6-381.8,381.8s171.6,381.8,381.8,381.8S-524.3,916.2-524.3,706
		C-524.3,493.7-695.9,324.2-906.1,324.2z M-665.9,815.4h-130.8v130.8h-220.9V815.4h-130.8V594.5h130.8V463.6h220.9v130.8h130.8
		C-665.9,596.6-665.9,815.4-665.9,815.4z"/>
</g>
<g>
	<path fill="#006837" d="M581.5,111.5C405.6,111.5,264,253.1,264,429s141.6,317.5,317.5,317.5S899,604.9,899,429
		S757.4,111.5,581.5,111.5z M581.5,716.4c-158.7,0-287.4-128.7-287.4-287.4s128.7-287.4,287.4-287.4S868.9,270.3,868.9,429
		S740.2,716.4,581.5,716.4z"/>
	<path fill="#006837" d="M581.5,173.7c-141.6,0-255.3,113.7-255.3,255.3s113.7,255.3,255.3,255.3c141.6,0,255.3-113.7,255.3-255.3
		S723.1,173.7,581.5,173.7z M742.4,501.9h-87.9v87.9H508.6v-87.9h-87.9V356.1h87.9v-87.9h145.9v87.9h87.9
		C742.4,356.1,742.4,501.9,742.4,501.9z"/>
</g>
</svg>
