<?xml version="1.0" encoding="utf-8"?>
<!-- Generator: Adobe Illustrator 18.1.1, SVG Export Plug-In . SVG Version: 6.00 Build 0)  -->
<svg version="1.1" id="Layer_1" xmlns="http://www.w3.org/2000/svg" xmlns:xlink="http://www.w3.org/1999/xlink" x="0px" y="0px"
	 viewBox="-561 410 40 40" enable-background="new -561 410 40 40" xml:space="preserve">
<g>
	<path fill="#006837" d="M-584.2,401.6c-12.3,0-22.2,10-22.2,22.2s10,22.2,22.2,22.2s22.2-10,22.2-22.2S-571.9,401.6-584.2,401.6z M-584.2,443.9
		c-11.1,0-20.2-9-20.2-20.2s9-20.2,20.2-20.2s20.2,9,20.2,20.2S-573.1,443.9-584.2,443.9z"/>
	<path fill="#006837" d="M-584.2,406c-9.8,0-17.8,8-17.8,17.8c0,9.8,8,17.8,17.8,17.8s17.8-8,17.8-17.8C-566.4,413.9-574.4,406-584.2,406z
		 M-573,428.9h-6.1v6.1h-10.3v-6.1h-6.1v-10.3h6.1v-6.1h10.3v6.1h6.1C-573,418.7-573,428.9-573,428.9z"/>
</g>
<g>
	<path fill="#006837" d="M-540.5,409c-8.2,0-14.8,6.6-14.8,14.8s6.6,14.8,14.8,14.8s14.8-6.6,14.8-14.8S-532.3,409-540.5,409z M-540.5,437.2
		c-7.4,0-13.4-6-13.4-13.4s6-13.4,13.4-13.4s13.4,6,13.4,13.4S-533.1,437.2-540.5,437.2z"/>
	<path fill="#006837" d="M-540.5,411.9c-6.6,0-11.9,5.3-11.9,11.9s5.3,11.9,11.9,11.9c6.6,0,11.9-5.3,11.9-11.9S-533.9,411.9-540.5,411.9z
		 M-533,427.2h-4.1v4.1h-6.8v-4.1h-4.1v-6.8h4.1v-4.1h6.8v4.1h4.1C-533,420.4-533,427.2-533,427.2z"/>
</g>
<g>
	<path fill="#006837" d="M-508.6,412.7c-6.1,0-11.1,5-11.1,11.1c0,6.1,5,11.1,11.1,11.1c6.1,0,11.1-5,11.1-11.1
		C-497.5,417.7-502.5,412.7-508.6,412.7z M-508.6,433.9c-5.6,0-10.1-4.5-10.1-10.1s4.5-10.1,10.1-10.1s10.1,4.5,10.1,10.1
		S-503.1,433.9-508.6,433.9z"/>
	<path fill="#006837" d="M-508.6,414.9c-4.9,0-8.9,4-8.9,8.9s4,8.9,8.9,8.9s8.9-4,8.9-8.9S-503.7,414.9-508.6,414.9z M-503,426.3h-3v3h-5.1v-3h-3
		v-5.1h3v-3h5.1v3h3V426.3z"/>
</g>
<g>
	<path fill="#006837" d="M-485.7,416.4c-4.1,0-7.4,3.3-7.4,7.4s3.3,7.4,7.4,7.4s7.4-3.3,7.4-7.4S-481.6,416.4-485.7,416.4z M-485.7,430.5
		c-3.7,0-6.7-3-6.7-6.7s3-6.7,6.7-6.7c3.7,0,6.7,3,6.7,6.7S-482,430.5-485.7,430.5z"/>
	<path fill="#006837" d="M-485.7,417.8c-3.3,0-5.9,2.7-5.9,5.9c0,3.3,2.7,5.9,5.9,5.9c3.3,0,5.9-2.7,5.9-5.9C-479.7,420.5-482.4,417.8-485.7,417.8z
		 M-481.9,425.5h-2v2h-3.4v-2h-2v-3.4h2v-2h3.4v2h2V425.5z"/>
</g>
</svg>
