<?xml version="1.0" encoding="utf-8"?>
<!-- Generator: Adobe Illustrator 18.1.1, SVG Export Plug-In . SVG Version: 6.00 Build 0)  -->
<svg version="1.1" xmlns="http://www.w3.org/2000/svg" xmlns:xlink="http://www.w3.org/1999/xlink" x="0px" y="0px"
	 viewBox="116 141 335 100.9" enable-background="new 116 141 335 100.9" xml:space="preserve">
<g id="Layer_1">
	<rect x="195.4" y="178.1" fill="none" width="357.5" height="63.8"/>
	
		<text transform="matrix(1 0 0 1 195.3528 214.6035)" fill="#006837" font-family="'Raleway-Bold'" font-size="50" letter-spacing="1">downroot</text>
</g>
<g id="Layer_2">
	<g>
		<g>
			<path fill="#006837" d="M174.6,169.1c-4-4-9.4-6.3-15.1-6.3c-5.7,0-11.1,2.2-15.1,6.3c-8.3,8.3-8.3,21.9,0,30.2
				c3.6,3.6,8.3,5.8,13.3,6.2v9.8c0,1,0.8,1.8,1.8,1.8c1,0,1.8-0.8,1.8-1.8v-9.8c5-0.4,9.7-2.6,13.3-6.2
				C183,191,183,177.4,174.6,169.1z M172,196.7c-2.9,2.9-6.6,4.7-10.7,5.1v-4l7.7-7.7c0.5-0.5,0.5-1.2,0-1.7c-0.5-0.5-1.3-0.5-1.7,0
				l-6,5.9v-7.8l4.6-4.6c0.5-0.5,0.5-1.2,0-1.7c-0.5-0.5-1.2-0.5-1.7,0l-2.9,2.9v-6.6c0-1-0.8-1.8-1.8-1.8s-1.8,0.8-1.8,1.8v12.2
				l-4.6-4.6c-0.5-0.5-1.3-0.5-1.7,0c-0.5,0.5-0.5,1.2,0,1.7l6.3,6.3v9.6c-4-0.4-7.8-2.2-10.7-5.1c-6.9-6.9-6.9-18.1,0-25
				c3.3-3.3,7.8-5.2,12.5-5.2c4.7,0,9.2,1.8,12.5,5.2C178.9,178.6,178.9,189.8,172,196.7z"/>
		</g>
	</g>
</g>
</svg>
