<?xml version="1.0" encoding="utf-8"?>
<!-- Generator: Adobe Illustrator 18.1.1, SVG Export Plug-In . SVG Version: 6.00 Build 0)  -->
<svg version="1.1" id="Layer_1" xmlns="http://www.w3.org/2000/svg" xmlns:xlink="http://www.w3.org/1999/xlink" x="0px" y="0px"
	 viewBox="-531 380 100 100" enable-background="new -531 380 100 100" xml:space="preserve">
<path fill="#006837" d="M-466.6,398.8h-1.1c0-0.1,0.1-0.2,0.1-0.3c0-1.7-1.4-3.1-3.1-3.1c-0.3,0-0.5,0-0.7,0.1c-0.4-1.3-1.6-2.3-3-2.3
	c-0.6,0-1.2,0.2-1.7,0.5c-0.5-1-1.6-1.6-2.7-1.6c-0.9,0-1.8,0.4-2.4,1.2c-1.2-0.1-2.4,0.5-3,1.6c-0.5-0.3-1.1-0.5-1.7-0.5
	c-1.4,0-2.6,0.9-3,2.2c-0.1,0-0.2,0-0.2,0c-1.4,0-2.7,1-3,2.3h-0.5c-0.3,0-0.5,0.1-0.7,0.3c-0.2,0.2-0.3,0.4-0.2,0.7l3.1,36.3
	c0,0.5,0.4,0.8,0.9,0.8h20c0.5,0,0.9-0.4,0.9-0.8l3.1-36.3c0-0.3-0.1-0.5-0.2-0.7C-466.1,398.9-466.4,398.8-466.6,398.8z
	 M-488.6,398.4c0.3,0.2,0.7,0.1,1-0.1c0.3-0.2,0.4-0.6,0.4-0.9c0,0,0-0.1,0-0.1c0-0.7,0.6-1.3,1.3-1.3c0.4,0,0.7,0.2,1,0.4
	c0.2,0.3,0.6,0.4,1,0.3c0.2-0.1,0.4-0.1,0.5-0.1c0.3-0.1,0.6-0.3,0.7-0.7c0.1-0.6,0.7-1,1.2-1c0.1,0,0.2,0,0.4,0.1
	c0.4,0.1,0.9-0.1,1.1-0.5c0.2-0.5,0.7-0.7,1.2-0.7c0.7,0,1.3,0.6,1.3,1.3c0,0.4,0.3,0.8,0.8,0.9c0.1,0,0.1,0,0.2,0.1
	c0.4,0.1,0.9,0,1.1-0.4c0.2-0.4,0.6-0.6,1.1-0.6c0.7,0,1.3,0.6,1.3,1.3c0,0.1,0,0.2-0.1,0.3c-0.1,0.3,0,0.7,0.3,0.9l0.1,0.1
	c0.4,0.3,0.9,0.3,1.3,0c0.2-0.2,0.6-0.4,0.9-0.4c0.7,0,1.3,0.6,1.3,1.3c0,0.1,0,0.2,0.1,0.3h-20.8
	C-489.9,398.3-489.2,398.1-488.6,398.4z M-476,400.6l-0.3,6.3c-0.4,0-0.8-0.1-1.2-0.1c-0.4,0-0.9,0-1.3,0.1v-6.3
	C-478.8,400.6-476,400.6-476,400.6z M-480.6,407.2c-0.1,0-0.2,0-0.3,0.1c-0.8,0.2-1.5,0.4-2.2,0.7l-0.3-7.3h2.8V407.2z
	 M-485.3,400.6l0.4,8.1c-0.8,0.5-1.6,1-2.3,1.6l-0.6-9.7H-485.3z M-484.4,420.9l0.7,14.1h-1.5l-1.1-14.8
	C-485.7,420.5-485.1,420.8-484.4,420.9z M-482.5,421.2c0.4,0,0.8,0.1,1.2,0.1c0.2,0,0.5,0,0.7,0V435h-1.3L-482.5,421.2z
	 M-478.8,421.1c0.3,0,0.6-0.1,0.9-0.2c0.3-0.1,0.6-0.2,1-0.2l-0.7,14.4h-1.2V421.1z M-475,420c0.7-0.3,1.4-0.7,2.1-1.1l-1.2,16.1
	h-1.5L-475,420z M-478.3,419.1c-1,0.2-2.1,0.3-3.1,0.3c-3.5,0-6.2-1.4-6.6-3.5c-0.3-1.3,0.3-2.7,1.6-4c1.4-1.4,3.5-2.5,5.9-3
	c1-0.2,2.1-0.3,3.1-0.3c3.5,0,6.2,1.4,6.6,3.5C-470.2,414.9-473.6,418.1-478.3,419.1z M-474.4,407.2l0.3-6.6h2.5l-0.5,7.4
	C-472.8,407.7-473.6,407.4-474.4,407.2z M-491.8,400.6h2.1l0.8,11.7c-0.8,1.3-1.1,2.7-0.8,4.1c0.2,1,0.7,1.8,1.5,2.6l1.2,16.1h-1.7
	L-491.8,400.6z M-470.6,435h-1.8l1.3-17.7c1.6-1.7,2.4-3.6,2-5.6c-0.2-0.9-0.7-1.8-1.4-2.5l0.6-8.7h2.1L-470.6,435z"/>
<path fill="#006837" d="M-482.8,413.4c0.1,0,0.1,0,0.2,0l6.8-1.3c0.5-0.1,0.8-0.6,0.7-1.1c-0.1-0.5-0.6-0.8-1.1-0.7l-6.8,1.3
	c-0.5,0.1-0.8,0.6-0.7,1.1C-483.6,413.1-483.2,413.4-482.8,413.4z"/>
<path fill="#006837" d="M-474,413.2l-10.9,2c-0.5,0.1-0.8,0.6-0.7,1.1c0.1,0.4,0.5,0.8,0.9,0.8c0.1,0,0.1,0,0.2,0l10.9-2c0.5-0.1,0.8-0.6,0.7-1.1
	C-473,413.5-473.5,413.1-474,413.2z"/>
</svg>
