<?xml version="1.0" encoding="utf-8"?>
<!-- Generator: Adobe Illustrator 18.1.1, SVG Export Plug-In . SVG Version: 6.00 Build 0)  -->
<svg version="1.1" id="Layer_1" xmlns="http://www.w3.org/2000/svg" xmlns:xlink="http://www.w3.org/1999/xlink" x="0px" y="0px"
	 viewBox="427 194 301 446" enable-background="new 427 194 301 446" xml:space="preserve">
<path fill="#006837" d="M687.1,279.2h-9.4c0-0.9,0.9-1.7,0.9-2.6c0-14.6-12-26.6-26.6-26.6c-2.6,0-4.3,0-6,0.9
	c-3.4-11.2-13.7-19.7-25.7-19.7c-5.1,0-10.3,1.7-14.6,4.3c-4.3-8.6-13.7-13.7-23.2-13.7c-7.7,0-15.4,3.4-20.6,10.3
	c-10.3-0.9-20.6,4.3-25.7,13.7c-4.3-2.6-9.4-4.3-14.6-4.3c-12,0-22.3,7.7-25.7,18.9c-0.9,0-1.7,0-1.7,0c-12,0-23.2,8.6-25.7,19.7
	h-4.3c-2.6,0-4.3,0.9-6,2.6c-1.7,1.7-2.6,3.4-1.7,6l26.6,311.5c0,4.3,3.4,6.9,7.7,6.9h171.6c4.3,0,7.7-3.4,7.7-6.9l26.6-311.5
	c0-2.6-0.9-4.3-1.7-6C691.4,280.1,688.9,279.2,687.1,279.2z M498.4,275.8c2.6,1.7,6,0.9,8.6-0.9c2.6-1.7,3.4-5.1,3.4-7.7v-0.9
	c0-6,5.1-11.2,11.2-11.2c3.4,0,6,1.7,8.6,3.4c1.7,2.6,5.1,3.4,8.6,2.6c1.7-0.9,3.4-0.9,4.3-0.9c2.6-0.9,5.1-2.6,6-6
	c0.9-5.1,6-8.6,10.3-8.6c0.9,0,1.7,0,3.4,0.9c3.4,0.9,7.7-0.9,9.4-4.3c1.7-4.3,6-6,10.3-6c6,0,11.2,5.1,11.2,11.2
	c0,3.4,2.6,6.9,6.9,7.7c0.9,0,0.9,0,1.7,0.9c3.4,0.9,7.7,0,9.4-3.4c1.7-3.4,5.1-5.1,9.4-5.1c6,0,11.2,5.1,11.2,11.2
	c0,0.9,0,1.7-0.9,2.6c-0.9,2.6,0,6,2.6,7.7l0.9,0.9c3.4,2.6,7.7,2.6,11.2,0c1.7-1.7,5.1-3.4,7.7-3.4c6,0,11.2,5.1,11.2,11.2
	c0,0.9,0,1.7,0.9,2.6H487.2C487.2,274.9,493.2,273.2,498.4,275.8z M606.5,294.6l-2.6,54.1c-3.4,0-6.9-0.9-10.3-0.9
	c-3.4,0-7.7,0-11.2,0.9v-54.1H606.5z M567,351.3c-0.9,0-1.7,0-2.6,0.9c-6.9,1.7-12.9,3.4-18.9,6l-2.6-62.6h24V351.3z M526.7,294.6
	l3.4,69.5c-6.9,4.3-13.7,8.6-19.7,13.7l-5.1-83.2H526.7z M534.4,468.8l6,121h-12.9l-9.4-127C523.3,465.4,528.4,468,534.4,468.8z
	 M550.7,471.4c3.4,0,6.9,0.9,10.3,0.9c1.7,0,4.3,0,6,0v117.5h-11.2L550.7,471.4z M582.5,470.5c2.6,0,5.1-0.9,7.7-1.7
	c2.6-0.9,5.1-1.7,8.6-1.7l-6,123.6h-10.3L582.5,470.5L582.5,470.5z M615.1,461.1c6-2.6,12-6,18-9.4l-10.3,138.1h-12.9L615.1,461.1z
	 M586.8,453.4c-8.6,1.7-18,2.6-26.6,2.6c-30,0-53.2-12-56.6-30c-2.6-11.2,2.6-23.2,13.7-34.3c12-12,30-21.5,50.6-25.7
	c8.6-1.7,18-2.6,26.6-2.6c30,0,53.2,12,56.6,30C656.3,417.3,627.1,444.8,586.8,453.4z M620.2,351.3l2.6-56.6h21.5l-4.3,63.5
	C633.9,355.6,627.1,353,620.2,351.3z M470.9,294.6h18l6.9,100.4c-6.9,11.2-9.4,23.2-6.9,35.2c1.7,8.6,6,15.4,12.9,22.3l10.3,138.1
	h-14.6L470.9,294.6z M652.8,589.8h-15.4l11.2-151.9c13.7-14.6,20.6-30.9,17.2-48c-1.7-7.7-6-15.4-12-21.4l5.1-74.6h18L652.8,589.8z"
	/>
<path fill="#006837" d="M547.1,404.5c0.9,0,0.9,0,1.7,0l58.3-11.2c4.3-0.9,6.9-5.1,6-9.4c-0.9-4.3-5.1-6.9-9.4-6L545.4,389
	c-4.3,0.9-6.9,5.1-6,9.4C540.3,401.9,543.7,404.5,547.1,404.5z"/>
<path fill="#006837" d="M621.3,402.8l-93.5,17.2c-4.3,0.9-6.9,5.1-6,9.4c0.9,3.4,4.3,6.9,7.7,6.9c0.9,0,0.9,0,1.7,0l93.5-17.2
	c4.3-0.9,6.9-5.1,6-9.4C629.9,405.3,625.6,401.9,621.3,402.8z"/>
</svg>
