<?xml version="1.0" encoding="utf-8"?>
<!-- Generator: Adobe Illustrator 18.1.1, SVG Export Plug-In . SVG Version: 6.00 Build 0)  -->
<svg version="1.1" id="Layer_1" xmlns="http://www.w3.org/2000/svg" xmlns:xlink="http://www.w3.org/1999/xlink" x="0px" y="0px"
	 viewBox="-531 380 100 100" enable-background="new -531 380 100 100" xml:space="preserve">
<rect x="-516.7" y="377.4" fill="none" width="74.1" height="74.1"/>
<path fill="#006837" d="M-469.3,409.1c6-3.2,8.2-10.8,5-16.8c-2.2-4-6.3-6.5-10.9-6.5c-2,0-4.1,0.5-5.9,1.5l-14.2,7.7l0,0l-11.3,6.1
	c-2.9,1.6-5,4.2-6,7.4c-0.9,3.2-0.6,6.5,1,9.4c2.2,4,6.3,6.5,10.9,6.5c2,0,4.1-0.5,5.9-1.5l13.2-7.2L-469.3,409.1z M-487.7,402.2
	l2.7-9l2.4-1.3l-3.8,12.7L-487.7,402.2z M-478.9,410.6l6.3-21.1c0.6,0.2,1.2,0.4,1.8,0.8l-5.6,19L-478.9,410.6z M-469.9,405.7
	l3.2-10.7C-465.2,398.8-466.5,403.2-469.9,405.7z M-467.8,392.9l-4.2,14l-2.4,1.3l5-16.9C-468.8,391.7-468.3,392.3-467.8,392.9z
	 M-474.2,389.2l-6.7,22.5l-1.2,0.7l-0.7-1.2l6.5-21.9c0.4,0,0.7-0.1,1.1-0.1C-474.9,389.1-474.6,389.2-474.2,389.2z M-478.1,389.7
	l-5.8,19.4l-1.3-2.4l4.7-15.9l1-0.6C-479.1,390-478.6,389.8-478.1,389.7z M-487,394.3l-1.7,5.8l-2-3.8L-487,394.3z M-496.3,420.1
	c-1.3,0.7-2.8,1.1-4.3,1.1c-3.3,0-6.4-1.8-8-4.8c-1.2-2.1-1.4-4.6-0.7-6.9c0.7-2.3,2.3-4.3,4.4-5.4l11.3-6.1l8.7,16L-496.3,420.1z
	 M-464.2,413.7c-10,0-17.8,4.6-17.8,10.5v8.4c0,5.9,7.8,10.5,17.8,10.5c10,0,17.8-4.6,17.8-10.5v-8.4
	C-446.4,418.3-454.2,413.7-464.2,413.7z M-464.2,416.9c8.6,0,14.5,3.8,14.5,7.2c0,0.2,0,0.4-0.1,0.7c0,0.2-0.1,0.4-0.2,0.6
	c0,0,0,0,0,0c-0.5,1.3-1.8,2.5-3.7,3.5c-0.1,0.1-0.2,0.1-0.3,0.2c-0.3,0.2-0.7,0.3-1,0.5c-0.3,0.1-0.6,0.3-1,0.4
	c-0.2,0.1-0.4,0.1-0.6,0.2c-4.7,1.5-10.8,1.5-15.4,0c-0.2-0.1-0.4-0.1-0.5-0.2c-0.3-0.1-0.7-0.3-1-0.4c-0.3-0.2-0.7-0.3-1-0.5
	c-0.1-0.1-0.2-0.1-0.4-0.2c-0.9-0.5-1.6-1-2.2-1.6c0,0-0.1,0-0.1-0.1c-0.6-0.6-1.1-1.2-1.3-1.9c0,0,0,0,0,0
	c-0.1-0.2-0.1-0.4-0.2-0.6c0-0.2-0.1-0.4-0.1-0.7C-478.7,420.7-472.7,416.9-464.2,416.9z M-449.6,432.5c0,3.4-6,7.2-14.5,7.2
	c-8.6,0-14.5-3.8-14.5-7.2v-2.3c0.1,0.1,0.1,0.1,0.2,0.2c0,0,0.1,0,0.1,0.1c3.2,2.5,8.3,4.1,14.2,4.1c4.7,0,8.8-1,12-2.7
	c0,0,0,0,0,0c0.8-0.4,1.6-0.9,2.3-1.5c0,0,0.1,0,0.1-0.1c0.1,0,0.1-0.1,0.2-0.1L-449.6,432.5L-449.6,432.5z M-472,427.5
	c-0.2-0.4,0-0.9,0.4-1.1l14.1-6c0.4-0.2,0.9,0,1.1,0.4c0.2,0.4,0,0.9-0.4,1.1l-14.1,6c-0.1,0-0.2,0.1-0.3,0.1
	C-471.6,428-471.9,427.8-472,427.5z"/>
</svg>
