<?xml version="1.0" encoding="utf-8"?>
<!-- Generator: Adobe Illustrator 18.1.1, SVG Export Plug-In . SVG Version: 6.00 Build 0)  -->
<svg version="1.1" id="Layer_1" xmlns="http://www.w3.org/2000/svg" xmlns:xlink="http://www.w3.org/1999/xlink" x="0px" y="0px"
	 viewBox="251 128 675 594" enable-background="new 251 128 675 594" xml:space="preserve">
<rect x="-255.8" y="357.7" fill="none" width="635.8" height="635.8"/>
<path fill="#006837" d="M671.2,383.1c51.5-27.5,70.4-92.7,42.9-144.1c-18.9-34.3-54.1-55.8-93.5-55.8c-17.2,0-35.2,4.3-50.6,12.9
	l-121.8,66.1l0,0l-97,52.3c-24.9,13.7-42.9,36-51.5,63.5c-7.7,27.5-5.1,55.8,8.6,80.7c18.9,34.3,54.1,55.8,93.5,55.8
	c17.2,0,35.2-4.3,50.6-12.9l113.3-61.8L671.2,383.1z M513.3,323.9l23.2-77.2l20.6-11.2l-32.6,109L513.3,323.9z M588.8,396l54.1-181
	c5.1,1.7,10.3,3.4,15.4,6.9l-48,163L588.8,396z M666,353.9l27.5-91.8C706.3,294.7,695.2,332.5,666,353.9z M684,244.1l-36,120.1
	l-20.6,11.2l42.9-145C675.5,233.8,679.7,239,684,244.1z M629.1,212.4l-57.5,193.1l-10.3,6l-6-10.3l55.8-187.9c3.4,0,6-0.9,9.4-0.9
	C623.1,211.5,625.7,212.4,629.1,212.4z M595.7,216.6l-49.8,166.5l-11.2-20.6l40.3-136.4l8.6-5.1
	C587.1,219.2,591.4,217.5,595.7,216.6z M519.3,256.1l-14.6,49.8l-17.2-32.6L519.3,256.1z M439.5,477.5c-11.2,6-24,9.4-36.9,9.4
	c-28.3,0-54.9-15.4-68.6-41.2c-10.3-18-12-39.5-6-59.2c6-19.7,19.7-36.9,37.8-46.3l97-52.3l74.6,137.3L439.5,477.5z M714.9,422.6
	c-85.8,0-152.7,39.5-152.7,90.1v72.1c0,50.6,66.9,90.1,152.7,90.1s152.7-39.5,152.7-90.1v-72.1C867.6,462,800.7,422.6,714.9,422.6z
	 M714.9,450c73.8,0,124.4,32.6,124.4,61.8c0,1.7,0,3.4-0.9,6c0,1.7-0.9,3.4-1.7,5.1l0,0c-4.3,11.2-15.4,21.5-31.7,30
	c-0.9,0.9-1.7,0.9-2.6,1.7c-2.6,1.7-6,2.6-8.6,4.3c-2.6,0.9-5.1,2.6-8.6,3.4c-1.7,0.9-3.4,0.9-5.1,1.7c-40.3,12.9-92.7,12.9-132.1,0
	c-1.7-0.9-3.4-0.9-4.3-1.7c-2.6-0.9-6-2.6-8.6-3.4c-2.6-1.7-6-2.6-8.6-4.3c-0.9-0.9-1.7-0.9-3.4-1.7c-7.7-4.3-13.7-8.6-18.9-13.7
	c0,0-0.9,0-0.9-0.9c-5.1-5.1-9.4-10.3-11.2-16.3l0,0c-0.9-1.7-0.9-3.4-1.7-5.1c0-1.7-0.9-3.4-0.9-6C590.5,482.6,642,450,714.9,450z
	 M840.2,583.9c0,29.2-51.5,61.8-124.4,61.8c-73.8,0-124.4-32.6-124.4-61.8v-19.7c0.9,0.9,0.9,0.9,1.7,1.7c0,0,0.9,0,0.9,0.9
	c27.5,21.5,71.2,35.2,121.8,35.2c40.3,0,75.5-8.6,103-23.2l0,0c6.9-3.4,13.7-7.7,19.7-12.9c0,0,0.9,0,0.9-0.9c0.9,0,0.9-0.9,1.7-0.9
	L840.2,583.9L840.2,583.9z M648,541c-1.7-3.4,0-7.7,3.4-9.4l121-51.5c3.4-1.7,7.7,0,9.4,3.4s0,7.7-3.4,9.4l-121,51.5
	c-0.9,0-1.7,0.9-2.6,0.9C651.4,545.3,648.9,543.5,648,541z"/>
</svg>
