<?xml version="1.0" encoding="utf-8"?>
<!-- Generator: Adobe Illustrator 18.1.1, SVG Export Plug-In . SVG Version: 6.00 Build 0)  -->
<svg version="1.1" id="Layer_1" xmlns="http://www.w3.org/2000/svg" xmlns:xlink="http://www.w3.org/1999/xlink" x="0px" y="0px"
	 viewBox="387 131 439 571" enable-background="new 387 131 439 571" xml:space="preserve">
<path fill="#006837" d="M574.2,387.7c-15.4,0-28.3,12.9-28.3,28.3c0,15.4,12.9,28.3,28.3,28.3c15.4,0,28.3-12.9,28.3-28.3
	C603.4,400.6,590.5,387.7,574.2,387.7z"/>
<path fill="#006837" d="M561.4,318.2c0-25.7-21.5-47.2-47.2-47.2c-25.7,0-47.2,21.4-47.2,47.2c0,25.7,21.5,47.2,47.2,47.2
	C540.8,365.4,561.4,344.8,561.4,318.2z"/>
<path fill="#006837" d="M776.7,314.8c-10.3-10.3-20.6-19.7-30.9-28.3l0,0l0,0c-84.9-71.2-190.5-109.8-302-109.8
	c-4.3,0-7.7,3.4-7.7,7.7v463.3c0,3.4,1.7,6,5.1,7.7c0.9,0,1.7,0.9,3.4,0.9c1.7,0,4.3-0.9,6-2.6l51.5-51.5c4.3,5.1,3.4,14.6,3.4,14.6
	v0.9c0,13.7,11.2,24,24,24c12.9,0,24-11.2,24-24v-54.9v-12l66.9-66.9c5.1,0.9,8.6,2.6,12,5.1c6.9,6.9,6.9,19.7,6.9,24.9v0.9
	c0,17.2,13.7,30.9,30.9,30.9c17.2,0,30.9-13.7,30.9-30.9v-77.2v-34.3l76.4-76.4c1.7-1.7,2.6-3.4,2.6-6
	C779.3,318.2,778.4,316.5,776.7,314.8z M692.6,364.6c-4.3,0-7.7,3.4-7.7,7.7v27.5v37.8v76.4c0,8.6-6.9,14.6-14.6,14.6
	c-8.6,0-14.6-6.9-14.6-14.6c0-3.4,0.9-23.2-11.2-36c-6.9-6.9-15.4-11.2-26.6-11.2c-1.7,0-4.3,0.9-6,2.6l-58.3,58.3v-24
	c0-4.3-3.4-7.7-7.7-7.7c-4.3,0-7.7,3.4-7.7,7.7v43.8v15.4v54.9c0,4.3-3.4,8.6-8.6,8.6c-4.3,0-8.6-3.4-8.6-7.7
	c0.9-9.4-1.7-27.5-17.2-33.5c-2.6-0.9-6.9-0.9-8.6,1.7l-42.9,42.9v-78.9c22.3-3.4,38.6-23.2,38.6-46.3c0-23.2-17.2-42-38.6-46.3
	V249.6c98.7,6.9,193.9,46.3,268.6,111.5l-19.7,19.7v-7.7C700.4,368,696.9,364.6,692.6,364.6z M731.2,349.1
	c-27.5-24-57.5-44.6-89.2-61.8l12.9-21.5c2.6-3.4,0.9-8.6-2.6-11.2c-3.4-2.6-8.6-0.9-11.2,2.6l-13.7,22.3
	c-42.9-20.6-88.4-35.2-135.6-42.9l6.9-22.3c0.9-4.3-0.9-8.6-5.1-9.4c-4.3-0.9-8.6,0.9-9.4,5.1l-6.9,24.9c-7.7-0.9-16.3-1.7-24-2.6
	v-40.3c42.9,0.9,84.9,7.7,125.3,19.7l-9.4,19.7c-1.7,4.3,0,8.6,3.4,10.3c0.9,0.9,2.6,0.9,3.4,0.9c2.6,0,6-1.7,6.9-4.3l10.3-21.4
	c48.9,17.2,95.2,42,136.4,75.5l-12,12.9c-3.4,3.4-2.6,8.6,0,11.2c1.7,1.7,3.4,2.6,5.1,2.6s4.3-0.9,6-2.6l12.9-13.7
	c6.9,6,12.9,11.2,18.9,17.2L731.2,349.1z"/>
</svg>
