<?xml version="1.0" encoding="utf-8"?>
<!-- Generator: Adobe Illustrator 18.1.1, SVG Export Plug-In . SVG Version: 6.00 Build 0)  -->
<svg version="1.1" id="Layer_1" xmlns="http://www.w3.org/2000/svg" xmlns:xlink="http://www.w3.org/1999/xlink" x="0px" y="0px"
	 viewBox="-531 380 100 100" enable-background="new -531 380 100 100" xml:space="preserve">
<g id="Your_Icon">
	<path fill="#006837" stroke="#006837" stroke-width="3" stroke-linejoin="round" stroke-miterlimit="10" d="M-451.6,406.2
		c-1.5-0.7-2.9-1.3-4.2-1.9l0,0l0,0c-2.7,2-5.9,3.2-9.5,3.2c-5.4,0-10.2-2.7-12.9-6.8h-5.5c-2.8,4.2-7.6,6.8-12.9,6.8
		c-3.5,0-6.9-1.2-9.5-3.2l0,0l0,0c-1.4,0.6-2.8,1.2-4.2,1.9c14.6,13.1,0.5,26.8,8.5,39.1c5.4,8.3,14.6,6.9,21,14.1
		c6.4-7.2,15.6-5.7,21-14.1C-452.1,433-466.2,419.3-451.6,406.2z"/>
</g>
</svg>
