<?xml version="1.0" encoding="utf-8"?>
<!-- Generator: Adobe Illustrator 18.1.1, SVG Export Plug-In . SVG Version: 6.00 Build 0)  -->
<svg version="1.1" id="Layer_1" xmlns="http://www.w3.org/2000/svg" xmlns:xlink="http://www.w3.org/1999/xlink" x="0px" y="0px"
	 viewBox="215.1 131.1 700.5 474" enable-background="new 215.1 131.1 700.5 474" xml:space="preserve">
<g id="Your_Icon">
</g>
<g id="Layer_1_1_">
	<g id="Captions" display="none">
		<rect x="-974.3" y="69.9" display="inline" width="1175.5" height="628.9"/>
		<rect x="245.8" y="-158.3" display="inline" width="635.8" height="190.5"/>
		<text transform="matrix(1 0 0 1 665.613 -53.8665)" display="inline" font-family="'Helvetica'" font-size="15.2535">http://thenounproject.com</text>
		<text transform="matrix(1 0 0 1 298.8069 -55.1362)" display="inline" font-family="'Helvetica-Bold'" font-size="25.4225">Icon Template</text>
		<line display="inline" fill="none" stroke="#FFFFFF" stroke-miterlimit="10" x1="297.3" y1="-21.9" x2="360.8" y2="-21.9"/>
		<rect x="-71.6" y="438.8" display="inline" fill="none" width="222.2" height="206.8"/>
		<text transform="matrix(1 0 0 1 -71.6357 484.1799)" display="inline" font-family="'Helvetica'" font-size="15.2535">Save as .SVG and make sure </text>
		<rect x="-68.2" y="213.2" display="inline" stroke="#FFFFFF" stroke-miterlimit="10" width="190.5" height="190.5"/>
	</g>
	<g id="Your_Icon_1_">
		<g>
			
				<path fill="#006837" stroke="#000000" stroke-width="1.9664" stroke-linecap="round" stroke-linejoin="round" stroke-miterlimit="3.8637" d="
				M584.7,383.1"/>
		</g>
		<path fill="#006837" d="M859.3,165.1H270.7c-12.9,0-24,11.2-24,24v357.8c0,12.9,11.2,24,24,24h588.6c12.9,0,24-11.2,24-24V189.1
			C883.3,176.3,872.2,165.1,859.3,165.1z M261.3,189.1c0-4.3,3.4-7.7,6.9-8.6H861c4.3,0.9,6.9,4.3,6.9,8.6v5.1h-26.6l-48.9,36.9
			l50.6-0.9l-42.9,31.7l-51.5,0.9l-48.9,36.9l50.6-0.9l-48,35.2l-51.5-0.9l-48.9,36.9l53.2-0.9l-42,30.9l-103.8,0.9L468,370.2
			l51.5,0.9l-48.9-36.9l-51.5-0.9L373.7,299l47.2,0.9L372,262.9l-46.3-0.9l-42-31.7l44.6,0.9l-48.9-36.9h-19.7
			C261.3,194.3,261.3,189.1,261.3,189.1z M285.3,247.5l-24.9,24.9v-43.8L285.3,247.5z M260.4,546.9v-18l29.2-29.2v-53.2l-29.2,29.2
			v-48.9l29.2-29.2v-53.2l-29.2,29.2v-48.9l29.2-29.2v-44.6l225.7,172.5l0,0c0.9,0,16.3,10.3,42.9,11.2c0.9,0,2.6,0,3.4,0
			c27.5,0,38.6-8.6,39.5-9.4l266-195.6v43.8l-29.2,29.2v53.2l29.2-29.2v48.9l-29.2,29.2v53.2l29.2-29.2v48.9l-29.2,29.2v20.6h-20.6
			l-28.3,28.3H740l28.3-28.3h-53.2l-28.3,28.3h-48.9l28.3-28.3H613l-28.3,28.3h-48.9l28.3-28.3h-53.2l-28.3,28.3h-48.9l28.3-28.3
			h-53.2l-28.3,28.3h-48.9l28.3-28.3h-53.2l-28.3,28.3h-12C264.7,556.4,260.4,552.1,260.4,546.9z M859.3,556.4h-15.4l24.9-24.9v15.4
			C868.7,552.1,864.4,556.4,859.3,556.4z"/>
	</g>
</g>
<g id="Слой_1">
</g>
<g id="Capa_1">
</g>
</svg>
