<?xml version="1.0" encoding="utf-8"?>
<!-- Generator: Adobe Illustrator 18.1.1, SVG Export Plug-In . SVG Version: 6.00 Build 0)  -->
<svg version="1.1" id="Your_Icon" xmlns="http://www.w3.org/2000/svg" xmlns:xlink="http://www.w3.org/1999/xlink" x="0px" y="0px"
	 viewBox="-512 380 63 75" enable-background="new -512 380 63 75" xml:space="preserve">
<g>
	<g>
		<path fill="#006837" d="M-490.5,387.3c0.6,0.6,0.9,1.1,1.7,1.8c0.2,0.2,0.6,0.5,1.2,1c0.5,0.4,1.2,0.9,1.8,1.4c0.6,0.4,1.3,0.8,1.7,1.1
			c0.2,0.1,0.4,0.3,0.6,0.3c0.1,0.1,0.2,0.1,0.2,0.1s0.1,0,0.2,0.1c0.1,0.1,0.3,0.2,0.6,0.3c0.5,0.3,1.1,0.7,1.9,1
			c0.7,0.3,1.6,0.5,2.4,0.5c0.2,0,0.4,0,0.5,0c0.2,0,0.3,0,0.5,0c0.3,0,0.5-0.1,0.7-0.1c0.3-0.1,0.5-0.2,0.8-0.3
			c0.2-0.1,0.4-0.2,0.6-0.4c0.2-0.1,0.4-0.3,0.5-0.4c0.2-0.1,0.3-0.3,0.5-0.3c-0.2,0-0.4,0-0.6-0.1c-0.2-0.1-0.4-0.2-0.6-0.3
			c-0.2-0.1-0.4-0.2-0.6-0.3c-0.2-0.1-0.4-0.2-0.6-0.3c-0.1-0.1-0.3-0.1-0.5-0.2c-0.1,0-0.2-0.1-0.4-0.1c-0.1,0-0.3-0.1-0.4-0.2
			c-0.1-0.1-0.3-0.1-0.4-0.2c-0.2-0.1-0.3-0.1-0.5-0.2c-0.2,0-0.3-0.1-0.5-0.2c-0.2,0-0.3-0.1-0.5-0.1c-0.3-0.1-0.7-0.2-1-0.2
			c-0.3-0.1-0.6-0.1-0.9-0.2c-0.2-0.1-0.4-0.1-0.6-0.2c-0.1,0-0.2-0.1-0.2-0.1s-0.1,0-0.2-0.1c-0.1,0-0.3-0.1-0.6-0.2
			c-0.5-0.2-1.1-0.4-1.8-0.7c-0.7-0.3-1.4-0.6-2-0.9c-0.6-0.3-1.1-0.5-1.3-0.6c-0.5-0.2-0.8-0.4-1.2-0.5
			C-489.8,387.7-490.2,387.5-490.5,387.3z"/>
	</g>
	<g>
		<path fill="#006837" d="M-473.3,448.6c0.1-4.7-0.5-17.7-4.6-21.9c-0.8-0.8-1.7-1.2-2.7-1.2c-1,0-1.8,0.4-2.7,1.2c-4.1,4.2-4.7,17.2-4.6,21.9
			c0,0,0,0.8-0.6,1.4c-0.8,0.7-1.8,1-2.9,1l0,0c-1.6,0-2.9-0.8-3.1-0.9l-0.1-0.1l-0.1-0.1c-0.4-0.3-9.1-8-5.8-23.3l0-0.1
			c0,0,1-3.8,1.2-7.5c0-0.3,0-5.5-3.2-8.6c-0.1-0.1-2-2.1-3.5-4.8c-2-3.9-2.2-7.6-0.4-10.6c0.6-1.3,5-11,12.9-11
			c2.1,0,4.3,0.7,6.5,2.1l0.1,0.1c0,0,1.9,1.4,4.1,1.4h4.1c2.3,0,4.1-1.4,4.1-1.4l0.1-0.1c2.1-1.4,4.3-2.1,6.5-2.1
			c7.9,0,12.3,9.7,12.9,11c1.8,3,1.6,6.7-0.4,10.6c-1.5,2.8-3.4,4.7-3.5,4.8c-3.2,3.2-3.2,8.3-3.2,8.6c0.1,3.7,1.1,7.5,1.2,7.5
			l0,0.1c3.3,15.3-5.4,23-5.8,23.3l-0.1,0.1l-0.1,0.1c-0.1,0.1-1.4,0.9-3.1,0.9c-1.1,0-2.1-0.4-2.9-1
			C-473.4,449.5-473.3,448.6-473.3,448.6z M-480.5,421.9c2,0,3.7,0.8,5.2,2.3c2.6,2.6,4.3,7.6,5.1,14.7c0.4,3.6,0.5,6.8,0.5,8.5
			c0.4,0,0.8-0.2,1-0.3c0.4-0.4,2-2,3.3-4.9c2-4.4,2.4-9.4,1.2-14.9c-0.1-0.5-1.1-4.3-1.3-8.3l0,0c0-0.3-0.1-6.9,4.2-11.2
			c0.1-0.1,6.2-6.4,3.3-11.1l-0.1-0.1l-0.1-0.1c0,0-1-2.4-2.8-4.7c-2.2-2.8-4.5-4.3-6.9-4.3c-1.4,0-2.9,0.5-4.5,1.5
			c-0.5,0.3-3,2.1-6.3,2.1h-4.1c-3.3,0-5.8-1.8-6.3-2.1c-1.5-1-3-1.5-4.5-1.5c-2.4,0-4.7,1.4-6.9,4.3c-1.8,2.3-2.7,4.6-2.8,4.7
			l-0.1,0.1l-0.1,0.1c-1.2,1.9-1,4.3,0.5,7.2c1.2,2.3,2.8,4,2.9,4c4.3,4.3,4.2,11,4.2,11.2v0c-0.2,3.9-1.1,7.8-1.3,8.3
			c-2.6,12.4,3.6,18.9,4.5,19.8c0.2,0.1,0.6,0.3,1,0.3c0-1.7,0.1-4.9,0.5-8.5c0.8-7.1,2.5-12.1,5.1-14.7
			C-484.2,422.7-482.5,421.9-480.5,421.9z"/>
	</g>
</g>
</svg>
