<?xml version="1.0" encoding="utf-8"?>
<!-- Generator: Adobe Illustrator 18.1.1, SVG Export Plug-In . SVG Version: 6.00 Build 0)  -->
<svg version="1.1" id="Layer_1" xmlns="http://www.w3.org/2000/svg" xmlns:xlink="http://www.w3.org/1999/xlink" x="0px" y="0px"
	 viewBox="456.5 279 250 300" enable-background="new 456.5 279 250 300" xml:space="preserve">
<g>
	<path fill="#006837" d="M664.2,314.6c-22.1-22.1-51.5-34.2-82.7-34.2c-31.3,0-60.6,12.2-82.7,34.2c-45.6,45.6-45.6,119.9,0,165.4
		c19.7,19.7,45.2,31.5,72.7,33.8v53.7c0,5.6,4.5,10,10,10s10-4.5,10-10v-53.7c27.5-2.3,53-14.1,72.7-33.8
		C709.8,434.5,709.8,360.3,664.2,314.6z M650,465.9c-15.9,15.9-36.4,25.6-58.5,27.9v-21.7l42.1-42.1c2.6-2.6,2.6-6.8,0-9.4
		s-6.8-2.6-9.5,0l-32.6,32.6v-42.5l25.3-25.3c2.6-2.6,2.6-6.8,0-9.4c-2.6-2.6-6.8-2.6-9.5,0l-15.8,15.8v-35.9c0-5.6-4.5-10-10-10
		s-10,4.5-10,10v66.7l-25-25c-2.6-2.6-6.8-2.6-9.5,0c-2.6,2.6-2.6,6.8,0,9.4l34.5,34.5v52.4c-22.1-2.3-42.6-11.9-58.5-27.9
		c-37.8-37.8-37.8-99.3,0-137.1c18.3-18.3,42.6-28.4,68.5-28.4c25.9,0,50.2,10.1,68.5,28.4C687.8,366.6,687.8,428.1,650,465.9z"/>
</g>
</svg>
