<?xml version="1.0" encoding="utf-8"?>
<!-- Generator: Adobe Illustrator 18.1.1, SVG Export Plug-In . SVG Version: 6.00 Build 0)  -->
<svg version="1.1" id="Your_Icon" xmlns="http://www.w3.org/2000/svg" xmlns:xlink="http://www.w3.org/1999/xlink" x="0px" y="0px"
	 viewBox="-531 380 100 100" enable-background="new -531 380 100 100" xml:space="preserve">
<g>
	<g>
		<path fill="#006837" d="M-2867.4,434.2c-0.6,0-1.2-0.4-1.4-1c-0.2-0.8,0.2-1.6,1-1.9l13.5-4.2c0.8-0.2,1.6,0.2,1.9,1c0.2,0.8-0.2,1.6-1,1.9
			l-13.5,4.2C-2867.1,434.2-2867.3,434.2-2867.4,434.2z"/>
	</g>
	<g>
		<path fill="#006837" d="M-2883.8,434.2c-0.1,0-0.3,0-0.4-0.1l-13.5-4.2c-0.8-0.2-1.2-1.1-1-1.9c0.2-0.8,1.1-1.2,1.9-1l13.5,4.2
			c0.8,0.2,1.2,1.1,1,1.9C-2882.6,433.8-2883.2,434.2-2883.8,434.2z"/>
	</g>
</g>
<g>
	<g>
		<path fill="#006837" d="M-2867.4,425.7c-0.6,0-1.2-0.4-1.4-1c-0.2-0.8,0.2-1.6,1-1.9l13.5-4.2c0.8-0.2,1.6,0.2,1.9,1s-0.2,1.6-1,1.9l-13.5,4.2
			C-2867.1,425.7-2867.3,425.7-2867.4,425.7z"/>
	</g>
	<g>
		<path fill="#006837" d="M-2883.8,425.7c-0.1,0-0.3,0-0.4-0.1l-13.5-4.2c-0.8-0.2-1.2-1.1-1-1.9c0.2-0.8,1.1-1.2,1.9-1l13.5,4.2
			c0.8,0.2,1.2,1.1,1,1.9C-2882.6,425.3-2883.2,425.7-2883.8,425.7z"/>
	</g>
</g>
<g>
	<g>
		<path fill="#006837" d="M-2867.4,417.2c-0.6,0-1.2-0.4-1.4-1c-0.2-0.8,0.2-1.6,1-1.9l13.5-4.2c0.8-0.2,1.6,0.2,1.9,1c0.2,0.8-0.2,1.6-1,1.9
			l-13.5,4.2C-2867.1,417.2-2867.3,417.2-2867.4,417.2z"/>
	</g>
	<g>
		<path fill="#006837" d="M-2883.8,417.2c-0.1,0-0.3,0-0.4-0.1l-13.5-4.2c-0.8-0.2-1.2-1.1-1-1.9c0.2-0.8,1.1-1.2,1.9-1l13.5,4.2
			c0.8,0.2,1.2,1.1,1,1.9C-2882.6,416.8-2883.2,417.2-2883.8,417.2z"/>
	</g>
</g>
<g>
	<g>
		<path fill="#006837" d="M-2867.4,408.7c-0.6,0-1.2-0.4-1.4-1c-0.2-0.8,0.2-1.6,1-1.9l13.5-4.2c0.8-0.2,1.6,0.2,1.9,1c0.2,0.8-0.2,1.6-1,1.9
			l-13.5,4.2C-2867.1,408.7-2867.3,408.7-2867.4,408.7z"/>
	</g>
	<g>
		<path fill="#006837" d="M-2883.8,408.7c-0.1,0-0.3,0-0.4-0.1l-13.5-4.2c-0.8-0.2-1.2-1.1-1-1.9c0.2-0.8,1.1-1.2,1.9-1l13.5,4.2
			c0.8,0.2,1.2,1.1,1,1.9C-2882.6,408.3-2883.2,408.7-2883.8,408.7z"/>
	</g>
</g>
<g>
	<path fill="#006837" d="M-2844.1,384.8c-0.6-0.4-1.3-0.5-2-0.3l-29.3,9.2l-29.3-9.2c-0.7-0.2-1.4-0.1-2,0.3c-0.6,0.4-0.9,1.1-0.9,1.8v51.7
		c0,1,0.6,1.8,1.6,2.1l30,9.4c0,0,0.1,0,0.1,0c0,0,0.1,0,0.1,0c0.1,0,0.1,0,0.2,0c0.1,0,0.2,0,0.2,0s0.2,0,0.2,0c0.1,0,0.1,0,0.2,0
		c0,0,0.1,0,0.1,0c0.1,0,0.1,0,0.1,0l30-9.4c0.9-0.3,1.6-1.1,1.6-2.1v-51.7C-2843.2,385.9-2843.5,385.2-2844.1,384.8z
		 M-2903.1,389.6l25.5,8v47l-25.5-8V389.6z M-2847.6,436.7l-25.5,8v-47l25.5-8V436.7z"/>
</g>
<g>
	<path fill="#006837" d="M-461.2,388.8c-5-5-11.5-7.7-18.5-7.7c-7,0-13.6,2.7-18.6,7.7c-10.2,10.2-10.2,26.9,0,37.1c4.4,4.4,10.1,7.1,16.3,7.6v12
		c0,1.2,1,2.2,2.2,2.2s2.2-1,2.2-2.2v-12c6.2-0.5,11.9-3.2,16.3-7.6C-450.9,415.7-450.9,399-461.2,388.8z M-464.3,422.7
		c-3.6,3.6-8.2,5.7-13.1,6.3v-4.9l9.4-9.4c0.6-0.6,0.6-1.5,0-2.1c-0.6-0.6-1.5-0.6-2.1,0l-7.3,7.3v-9.5l5.7-5.7
		c0.6-0.6,0.6-1.5,0-2.1c-0.6-0.6-1.5-0.6-2.1,0l-3.5,3.5V398c0-1.2-1-2.2-2.2-2.2s-2.2,1-2.2,2.2v15l-5.6-5.6
		c-0.6-0.6-1.5-0.6-2.1,0c-0.6,0.6-0.6,1.5,0,2.1l7.7,7.7V429c-5-0.5-9.6-2.7-13.1-6.3c-8.5-8.5-8.5-22.3,0-30.7
		c4.1-4.1,9.6-6.4,15.4-6.4c5.8,0,11.3,2.3,15.4,6.4C-455.9,400.5-455.9,414.2-464.3,422.7z"/>
</g>
</svg>
